<?xml version="1.0" standalone="no"?>
<!DOCTYPE svg PUBLIC "-//W3C//DTD SVG 1.1//EN" "http://www.w3.org/Graphics/SVG/1.1/DTD/svg11.dtd">
<svg xmlns="http://www.w3.org/2000/svg">
<metadata>Generated by Fontastic.me</metadata>
<defs>
<font id="untitled-font-4" horiz-adv-x="512">
<font-face font-family="untitled-font-4" units-per-em="512" ascent="480" descent="-32"/>
<missing-glyph horiz-adv-x="512" />

<glyph glyph-name="mixer-2" unicode="&#99;" d="M0 399l0 32 304 0 0-32z m432 0l0 32 80 0 0-32z m-432-159l0 32 80 0 0-32z m208 0l0 32 304 0 0-32z m-208-162l0 32 304 0 0-32z m432 0l0 32 80 0 0-32z m-240 122c0-22-22-40-48-40-26 0-48 18-48 40l0 112c0 22 22 40 48 40 26 0 48-18 48-40z m224 160c0-22-22-40-48-40-26 0-48 18-48 40l0 112c0 22 22 40 48 40 26 0 48-18 48-40z m0-320c0-22-22-40-48-40-26 0-48 18-48 40l0 112c0 22 22 40 48 40 26 0 48-18 48-40z"/>
<glyph glyph-name="arrow-move" unicode="&#101;" d="M480 256l-96-96 0 76-109 0 1-108 76 0-96-96-96 96 76 0 0 108-108 0 0-76-96 96 96 96 0-76 108 0 0 108-76 0 96 96 96-96-76 0 0-108 108 0 0 76z"/>
<glyph glyph-name="remove-delete" unicode="&#102;" d="M438 125c14-14 14-37 0-51-14-14-37-14-51 0l-131 131-131-131c-14-14-36-14-50 0-14 14-14 37 0 51l130 131-130 131c-14 14-14 37 0 51 14 14 36 14 50 0l131-131 131 131c14 14 37 14 51 0 14-14 14-37 0-51l-131-131z"/>
<glyph glyph-name="grid" unicode="&#98;" d="M160 359c0-4-3-7-7-7l-50 0c-4 0-7 3-7 7l0 50c0 4 3 7 7 7l50 0c4 0 7-3 7-7z m128 0c0-4-3-7-7-7l-50 0c-4 0-7 3-7 7l0 50c0 4 3 7 7 7l50 0c4 0 7-3 7-7z m128 0c0-4-3-7-7-7l-50 0c-4 0-7 3-7 7l0 50c0 4 3 7 7 7l50 0c4 0 7-3 7-7z m-256-128c0-4-3-7-7-7l-50 0c-4 0-7 3-7 7l0 50c0 4 3 7 7 7l50 0c4 0 7-3 7-7z m128 0c0-4-3-7-7-7l-50 0c-4 0-7 3-7 7l0 50c0 4 3 7 7 7l50 0c4 0 7-3 7-7z m128 0c0-4-3-7-7-7l-50 0c-4 0-7 3-7 7l0 50c0 4 3 7 7 7l50 0c4 0 7-3 7-7z m-256-128c0-4-3-7-7-7l-50 0c-4 0-7 3-7 7l0 50c0 4 3 7 7 7l50 0c4 0 7-3 7-7z m128 0c0-4-3-7-7-7l-50 0c-4 0-7 3-7 7l0 50c0 4 3 7 7 7l50 0c4 0 7-3 7-7z m128 0c0-4-3-7-7-7l-50 0c-4 0-7 3-7 7l0 50c0 4 3 7 7 7l50 0c4 0 7-3 7-7z"/>
<glyph glyph-name="navicon-round" unicode="&#104;" d="M417 288c17 0 31-14 31-32 0-18-14-32-31-32l-322 0c-17 0-31 14-31 32 0 18 14 32 31 32z m0 128c17 0 31-14 31-32 0-18-14-32-31-32l-322 0c-17 0-31 14-31 32 0 18 14 32 31 32z m0-256c17 0 31-14 31-32 0-18-14-32-31-32l-322 0c-17 0-31 14-31 32 0 18 14 32 31 32z"/>
<glyph glyph-name="plus-add-2" unicode="&#105;" d="M417 288c17 0 31-14 31-32 0-18-14-32-31-32l-129 0 0-129c0-17-14-31-32-31-18 0-32 14-32 31l0 129-129 0c-17 0-31 14-31 32 0 18 14 32 31 32l129 0 0 129c0 17 14 31 32 31 18 0 32-14 32-31l0-129z"/>
<glyph glyph-name="buffer" unicode="&#107;" d="M71 348c-9 4-9 11 0 15l169 82c4 2 10 3 16 3 6 0 12-1 16-3l169-82c9-4 9-11 0-15l-169-82c-4-2-10-3-16-3-6 0-12 1-16 3z m370-84c9-4 9-12 0-16l-169-81c-4-2-10-4-16-4-6 0-12 2-16 4l-169 81c-9 4-9 12 0 16 0 0 27 13 33 16 5 3 7 3 13 0 6-3 123-60 123-60 4-2 10-3 16-3 6 0 12 1 16 3 0 0 121 59 125 61 4 2 5 2 9 0 4-2 35-17 35-17z m0-100c9-4 9-11 0-15l-169-82c-4-2-10-3-16-3-6 0-12 1-16 3l-169 82c-9 4-9 11 0 15 0 0 27 14 33 17 5 3 7 2 13-1 6-3 123-59 123-59 4-2 10-3 16-3 6 0 12 1 16 3 0 0 121 58 125 60 4 2 5 2 9 0 4-2 35-17 35-17z"/>
<glyph glyph-name="eye-view" unicode="&#108;" d="M256 384c99 0 172-70 224-129-51-50-124-127-224-127-100 0-157 60-224 128 78 79 142 128 224 128z m0-219c49 0 90 41 90 91 0 50-41 91-90 91-49 0-90-41-90-91 0-50 41-91 90-91z m0 123c0-18 14-32 32-32 8 0 14 3 20 7l0-7c0-29-23-53-52-53-29 0-52 24-52 53 0 29 23 53 52 53l8 0c-5-6-8-13-8-21z"/>
<glyph glyph-name="gear-setting-2" unicode="&#109;" d="M448 218l-44 0c-4-14-10-27-17-39l32-32-54-54-33 32c-12-7-24-11-38-15l0-46-76 0 0 46c-13 4-26 8-38 15l-33-32-54 54 32 32c-7 12-13 25-17 39l-44 0 0 76 43 0c4 14 9 29 16 41l-30 30 54 54 29-29c13 8 27 13 42 17l0 41 76 0 0-41c15-4 29-9 42-17l29 29 54-54-30-30c7-12 13-27 16-41l43 0z m-192-16c30 0 54 24 54 54 0 30-24 54-54 54-30 0-54-24-54-54 0-30 24-54 54-54z"/>
<glyph glyph-name="android-clipboard" unicode="&#97;" d="M405 432l-87 0c-7 28-32 48-62 48-30 0-55-20-62-48l-87 0c-24 0-43-19-43-43l0-314c0-24 19-43 43-43l298 0c24 0 43 19 43 43l0 314c0 24-19 43-43 43z m-149 0c12 0 21-10 21-21 0-12-9-22-21-22-12 0-21 10-21 22 0 11 9 21 21 21z m152-360l-304 0 0 320 40 0 0-72 224 0 0 72 40 0z"/>
<glyph glyph-name="android-sync" unicode="&#106;" d="M256 419l0 61-80-81 80-82 0 61c66 0 120-55 120-122 0-20-5-40-14-57l29-30c16 26 25 55 25 87 0 90-72 163-160 163z m0-285c-66 0-120 55-120 122 0 20 5 40 14 57l-29 30c-16-25-25-55-25-87 0-90 72-163 160-163l0-61 80 81-80 82z"/>
<glyph glyph-name="document" unicode="&#110;" d="M399 343c0 3-2 5-3 7l-84 92c-2 2-4 3-6 4-3 1-7 2-10 2l-160 0c-12 0-23-10-23-23l0-336c0-13 11-25 23-25l243 0c13 0 22 12 22 25l0 245c0 3-1 6-2 9z m-93 58l58-64-58 0z m-161-306l0 320 129 0 0-81c0-15 13-29 28-29l67 0 0-210z"/>
<glyph glyph-name="send-to-front" unicode="&#114;" d="M352 352l0 128-320 0 0-320 128 0 0-128 320 0 0 320z m96-288l-256 0 0 256 256 0z"/>
<glyph glyph-name="send-to-back" unicode="&#115;" d="M160 160l160 0 0 128 96 0 0-256-256 0z m-160 320l0-320 128 0 0-160 320 0 0 320-128 0 0 160z"/>
<glyph glyph-name="clipboard" unicode="&#116;" d="M160 352c2 20 10 35 28 40l1 1c12 3 21 7 21 20l0 21c0 26 20 46 46 46 26 0 46-20 46-46l0-21c0-13 9-18 21-21l1 0c18-5 26-20 28-40z m96 96c-8 0-14-6-14-14 0-8 6-14 14-14 8 0 14 6 14 14 0 8-6 14-14 14z m149 1c15 0 27-13 27-29l0-360c0-16-12-28-27-28l-298 0c-15 0-27 12-27 28l0 360c0 16 12 29 27 29l74 0 0-15c0-11-9-18-19-18l-37 0c-7 0-13-5-13-12l0-328c0-6 6-12 12-12l264 0c6 0 12 6 12 12l0 328c0 7-6 12-13 12l-37 0c-10 0-19 7-19 18l0 15z m-261-145l0 16 112 0 0-16z m0-96l0 16 160 0 0-16z m0-96l0 16 129 0 0-16z m0 48l0 16 176 0 0-16z m0 96l0 16 208 0 0-16z"/>
<glyph glyph-name="files" unicode="&#118;" d="M485 402c7 0 14-2 19-8 5-5 8-12 8-19l0-348c0-7-3-14-8-19-5-5-12-8-19-8l-275 0c-7 0-14 3-19 8-5 5-8 12-8 19l0 83-156 0c-7 0-14 2-19 8-5 5-8 12-8 19l0 192c0 8 2 16 6 25 4 9 8 17 13 22l117 117c5 5 13 9 22 13 9 4 17 6 25 6l119 0c7 0 14-3 19-8 5-5 8-12 8-19l0-94c13 7 25 11 37 11z m-156-61l-85-85 85 0z m-183 110l-85-85 85 0z m56-185l91 91 0 118-110 0 0-118c0-8-3-15-8-20-5-5-12-8-20-8l-118 0 0-183 146 0 0 73c0 8 2 16 6 26 3 9 8 16 13 21z m273-229l0 329-109 0 0-119c0-8-3-14-8-20-6-5-12-8-20-8l-119 0 0-182z"/>
<glyph glyph-name="loop" unicode="&#103;" d="M273 211l0-58c49 9 86 51 86 103 0 16-3 31-10 44-2 6-6 12-9 17l47 43c1-1 2-2 3-4 21-28 33-62 33-100l0-4c-1-71-48-132-111-154-13-5-26-8-39-9l0-57-76 67-26 23 44 39z m-184 49c2 72 48 133 113 155 12 4 24 7 37 8l0 57 76-67 26-23-44-39-59-51 1 58c-49-8-86-51-86-102 0-16 3-31 10-45 2-6 6-11 9-16l-47-44c-1 2-2 4-3 5-21 28-33 63-33 100z"/>
<glyph glyph-name="code-fork" unicode="&#100;" d="M192 91c0 8-3 15-8 20-5 5-12 8-19 8-8 0-15-3-20-8-5-5-8-12-8-20 0-7 3-14 8-19 5-5 12-8 20-8 7 0 14 3 19 8 5 5 8 12 8 19z m0 330c0 7-3 14-8 19-5 5-12 8-19 8-8 0-15-3-20-8-5-5-8-12-8-19 0-8 3-15 8-20 5-5 12-8 20-8 7 0 14 3 19 8 5 5 8 12 8 20z m183-37c0 8-3 14-8 19-5 6-12 8-20 8-7 0-14-2-19-8-5-5-8-11-8-19 0-8 3-14 8-19 5-6 12-8 19-8 8 0 15 2 20 8 5 5 8 11 8 19z m27 0c0-10-2-19-7-28-5-8-12-15-20-19-1-55-22-95-65-119-13-7-32-15-58-23-24-7-40-14-48-20-8-6-12-16-12-29l0-7c8-5 15-12 20-20 5-8 7-18 7-28 0-15-5-28-16-38-10-11-23-16-38-16-16 0-29 5-39 16-11 10-16 23-16 38 0 10 2 20 7 28 5 8 12 15 20 20l0 234c-8 5-15 12-20 20-5 8-7 18-7 28 0 15 5 28 16 38 10 11 23 16 39 16 15 0 28-5 38-16 11-10 16-23 16-38 0-10-2-20-7-28-5-8-12-15-20-20l0-142c10 5 25 11 44 16 10 4 19 6 25 9 6 2 13 5 20 9 7 3 13 7 17 11 4 4 8 9 12 15 3 5 6 12 8 19 1 8 2 17 2 27-8 4-15 11-20 19-5 9-7 18-7 28 0 15 5 28 16 39 10 11 23 16 38 16 16 0 29-5 39-16 11-11 16-24 16-39z"/>
<glyph glyph-name="css3" unicode="&#111;" d="M79 475l430 0-76-380-230-77-200 77 21 101 85 0-9-42 121-46 139 46 19 97-345 0 17 85 345 0 11 55-345 0z"/>
<glyph glyph-name="folder-open" unicode="&#112;" d="M501 241c0-5-3-11-8-18l-90-105c-7-9-18-17-32-23-14-7-26-10-38-10l-290 0c-6 0-12 1-16 4-5 2-8 6-8 11 0 6 3 12 9 18l89 105c8 10 19 17 32 24 14 6 27 9 39 9l290 0c6 0 11-1 16-3 5-3 7-7 7-12z m-91 92l0-43-222 0c-17 0-34-4-53-13-18-8-33-19-44-31l-89-106-2-2c0 1 0 2 0 4 0 1 0 2 0 3l0 256c0 16 6 30 18 42 11 12 25 18 42 18l85 0c16 0 30-6 42-18 12-12 18-26 18-42l0-8 145 0c16 0 30-6 42-18 12-12 18-26 18-42z"/>
<glyph glyph-name="lock" unicode="&#113;" d="M183 293l146 0 0 54c0 21-7 38-21 52-15 14-32 22-52 22-20 0-37-8-52-22-14-14-21-31-21-52z m238-28l0-164c0-8-3-15-8-20-6-5-12-8-20-8l-274 0c-8 0-14 3-20 8-5 5-8 12-8 20l0 164c0 8 3 14 8 20 6 5 12 8 20 8l9 0 0 54c0 35 13 66 38 91 25 25 55 37 90 37 35 0 65-12 90-37 25-25 38-56 38-91l0-54 9 0c8 0 14-3 20-8 5-6 8-12 8-20z"/>
<glyph glyph-name="unlock" unicode="&#117;" d="M393 293c8 0 14-3 20-8 5-6 8-12 8-20l0-164c0-8-3-15-8-20-6-5-12-8-20-8l-274 0c-8 0-14 3-20 8-5 5-8 12-8 20l0 164c0 8 3 14 8 20 6 5 12 8 20 8l9 0 0 91c0 35 13 65 38 90 25 25 55 38 90 38 35 0 65-13 90-38 25-25 38-55 38-90 0-5-2-9-5-13-4-3-8-5-13-5l-19 0c-5 0-9 2-12 5-4 4-6 8-6 13 0 20-7 37-21 52-15 14-32 21-52 21-20 0-37-7-52-21-14-15-21-32-21-52l0-91z"/>
<glyph glyph-name="link" unicode="&#120;" d="M256 304z m112 48c44 0 80-36 80-80l0-32c0-44-36-80-80-80l-112 0c-33 0-60 20-73 48-4 10-7 20-7 32l0 32 48 0 0-32c0-18 14-32 32-32l112 0c18 0 32 14 32 32l0 32c0 18-14 32-32 32l-16 0c-6 31-32 48-32 48z m-38-48c4-10 6-21 6-32l0-32-48 0 0 32c0 18-14 32-32 32l-112 0c-18 0-32-14-32-32l0-32c0-18 14-32 32-32l16 0c6-31 32-48 32-48l-48 0c-44 0-80 36-80 80l0 32c0 44 36 80 80 80l112 0c33 0 62-20 74-48z"/>
<glyph glyph-name="calendar" unicode="&#121;" d="M144 384c18 0 32 14 32 32l0 32c0 18-14 32-32 32-18 0-32-14-32-32l0-32c0-18 14-32 32-32z m224 0c18 0 32 14 32 32l0 32c0 18-14 32-32 32-18 0-32-14-32-32l0-32c0-18 14-32 32-32z m104 64l-56 0 0-41c0-22-23-39-47-39-24 0-49 17-49 39l0 41-128 0 0-41c0-22-24-39-48-39-24 0-48 17-48 39l0 41-56 0c-4 0-8-4-8-8l0-400c0-4 4-8 8-8l432 0c4 0 8 4 8 8l0 400c0 4-4 8-8 8z m-40-368l-352 0 0 256 352 0z"/>
<glyph glyph-name="spin-alt" unicode="&#122;" d="M75 75c-48 48-75 113-75 181 0 141 115 256 256 256l32-32-32-32c-106 0-192-86-192-192 0-51 20-100 56-136l-39-5z m181-75l-32 32 32 32c106 0 192 86 192 192 0 51-20 100-56 136l39 5 6 40c48-48 75-113 75-181 0-141-115-256-256-256z"/>
<glyph glyph-name="android-list" unicode="&#65;" d="M408 448l-304 0c-22 0-40-18-40-40l0-304c0-22 18-40 40-40l304 0c22 0 40 18 40 40l0 304c0 22-18 40-40 40z m-104-304l-160 0 0 48 160 0z m64 88l-224 0 0 48 224 0z m0 88l-224 0 0 48 224 0z"/>
<glyph glyph-name="android-funnel" unicode="&#66;" d="M208 112l96 0 0 48-96 0z m-176 288l0-48 448 0 0 48z m80-169l288 0 0 50-288 0z"/>
<glyph glyph-name="android-send" unicode="&#67;" d="M48 64l416 192-416 192 0-149 298-43-298-43z"/>
<glyph glyph-name="android-archive" unicode="&#69;" d="M454 412l-33 39c-6 8-16 13-26 13l-278 0c-10 0-20-5-26-13l-33-39c-7-7-10-17-10-29l0-289c0-25 21-46 46-46l324 0c25 0 46 21 46 46l0 289c0 12-3 22-10 29z m-198-283l-127 127 81 0 0 46 92 0 0-46 81 0z m-159 289l18 23 277 0 22-23z"/>
<glyph glyph-name="android-menu" unicode="&#68;" d="M64 128l384 0 0 43-384 0z m0 107l384 0 0 42-384 0z m0 149l0-43 384 0 0 43z"/>
<glyph glyph-name="android-cart" unicode="&#70;" d="M170 134c-23 0-42-18-42-41 0-23 19-42 42-42 22 0 41 19 41 42 0 23-19 41-41 41z m-122 327l0-42 42 0 74-151-31-51c-3-6-5-13-5-20 0-28 19-42 45-42l243 0 0 40-238 0c-3 0-5 2-5 5 0 1 2 6 2 6l21 32 155 0c15 0 29 9 36 22l75 129c1 2 2 6 2 10 0 12-9 20-21 20l-308 0-19 42z m326-327c-22 0-41-18-41-41 0-23 19-42 41-42 23 0 42 19 42 42 0 23-19 41-42 41z"/>
<glyph glyph-name="pricetags" unicode="&#71;" d="M472 273c0 0 0 0 0 0l-190 191-1 1c0 0-1 0-1 0-7 7-16 11-27 11l-90 4-4 0c-10 0-20-4-27-12l-27-27c7 6 16 10 26 10l3 0 90-4c11 0 20-3 27-11 0 0 1 0 1 0l1-1 190-191c10-11 11-28 0-39l29 29c11 11 10 28 0 39z m-44-44c0 0 0 0 0 0l-189 192-2 1c0 0 0 0 0 0-7 7-16 11-27 11l-90 3-4 0c-9 0-18-3-26-9 0-1 0-1-1-1 0-1 0-1-1-1l-44-45c-8-8-12-19-12-29 0 0 0 0 0-1l0-3 6-88c0 0 0 0 0 0l0-2c1-8 4-16 10-22l5-5 186-188 3-3c11-10 27-9 37 1l13 13c1 1 1 1 2 2l27 27c-1-1-1-1-1-1l108 109c11 11 11 29 0 39z m-317 143c6 4 14 7 22 7 24 0 44-20 44-44 0-8-3-16-7-22-7-13-21-21-37-21-24 0-43 19-43 43 0 16 8 30 21 37z"/>
<glyph glyph-name="quote" unicode="&#72;" d="M192 448c-41 0-72-11-95-33-22-23-33-54-33-95l0-256 160 0 0 256-96 0c0 23 5 40 15 49 9 10 26 15 49 15m224 64c-41 0-72-11-95-33-22-23-33-54-33-95l0-256 160 0 0 256-96 0c0 23 5 40 15 49 9 10 26 15 49 15"/>
<glyph glyph-name="code-working" unicode="&#73;" d="M208 256c0-13-11-24-24-24-13 0-24 11-24 24 0 13 11 24 24 24 13 0 24-11 24-24z m72 0c0-13-11-24-24-24-13 0-24 11-24 24 0 13 11 24 24 24 13 0 24-11 24-24z m72 0c0-13-11-24-24-24-13 0-24 11-24 24 0 13 11 24 24 24 13 0 24-11 24-24z m-184-136c-6 0-12 2-17 7l-112 112c-9 9-9 25 0 34l112 112c9 9 25 9 34 0 9-9 9-25 0-34l-95-95 95-95c9-9 9-25 0-34-5-5-11-7-17-7z m176 0c6 0 12 2 17 7l112 112c9 9 9 25 0 34l-112 112c-9 9-25 9-34 0-9-9-9-25 0-34l95-95-95-95c-9-9-9-25 0-34 5-5 11-7 17-7z"/>
<glyph glyph-name="help" unicode="&#119;" d="M345 435c-27 21-58 28-98 28-29 0-55-6-75-20-30-20-44-54-44-108l77 0c0 14-2 30 7 43 8 13 20 24 40 24 20 0 31-6 41-18 8-11 11-23 11-36 0-12-5-22-12-32-4-5-9-10-15-15 0 0-42-25-56-48-11-18-15-40-16-66 0-2 0-5 7-5 7 0 56 0 62 0 6 0 7 4 7 6 0 9 2 24 3 29 4 11 10 20 20 28l21 14c18 15 33 26 40 36 11 15 19 34 19 57 0 36-13 64-39 83z m-103-293c-26 1-47-17-48-46-1-28 19-46 45-47 27-1 48 17 49 45 1 28-19 47-46 48z"/>
<glyph glyph-name="images" unicode="&#74;" d="M458 372l-83 4-5 54c-1 11-11 19-23 18l-296-24c-11-1-20-11-19-22l21-236c1-11 11-19 23-18l15 1-2-46c-1-12 9-23 22-23l330-16c14-1 24 9 25 21l14 263c1 13-9 23-22 24z m-355-6l-7-134-18-25-16 178c0 0 0 0 0 0 0 1 0 1 0 1 1 5 4 9 10 9l261 22c5 0 9-3 10-8 0 0 0 0 0-1 0 0 1 0 1 0l2-31-219 11c-13 0-24-9-24-22z m334-236l-47 55-27 33c-3 2-7 5-11 5-4 0-8-1-11-4l-17-12c-3-2-6-3-9-3-4 0-7 1-10 4 0 0-2 2-3 3l-43 49c-3 4-8 6-14 7-5 0-11-3-14-6l-102-109-6-7 0 7 7 128 3 63c0 1 0 1 0 1 0 0 0 0 0 0 1 6 6 10 12 9l204-9 29-2 58-3c6 0 10-4 11-10 0 0 0 0 0 0 0-1 0-1 0-1z m-64 120c20 0 35 15 35 35 0 19-15 35-35 35-19 0-35-16-35-35 0-20 16-35 35-35z"/>
<glyph glyph-name="facebook" unicode="&#75;" d="M384 407c0 0-73 0-73 0-4 0-9-3-13-8-3-5-5-12-5-19 0 0 0-52 0-52 0 0 91 0 91 0 0 0 0-76 0-76 0 0-91 0-91 0 0 0 0-226 0-226 0 0-87 0-87 0 0 0 0 226 0 226 0 0-78 0-78 0 0 0 0 76 0 76 0 0 78 0 78 0 0 0 0 44 0 44 0 32 10 59 30 81 20 22 45 33 75 33 0 0 73 0 73 0 0 0 0-79 0-79"/>
<glyph glyph-name="ios-arrow-forward" unicode="&#76;" d="M160 384l32 32 160-160-160-160-32 32 127 128z"/>
<glyph glyph-name="edit" unicode="&#77;" d="M163 72l-91 91 251 250 90-90z m309 352l-48 48c-12 11-32 11-45-2l-45-45 91-91 45 45c13 13 13 33 2 45z m-408-275l-32-117 117 32z"/>
<glyph glyph-name="icomoon-1" unicode="&#79;" d="M256 2c-102 0-254 17-254 63 0 44 136 58 177 61 5 0 9-4 9-8 1-5-3-9-8-9-110-8-161-31-161-44 0-16 82-46 237-46 155 0 237 30 237 46 0 13-53 36-167 44-5 0-8 4-8 9 0 5 5 8 9 8 43-3 183-16 183-61 0-46-152-63-254-63z m0 64c-1 0-3 0-4 1-7 4-181 94-181 256 0 105 82 187 185 187 103 0 185-82 185-187 0-162-174-252-181-256-1-1-3-1-4-1z m0 427c-94 0-167-75-167-170 0-139 142-224 167-239 25 15 167 100 167 239 0 95-73 170-167 170z m0-221c-44 0-79 35-79 79 0 43 35 78 79 78 44 0 79-35 79-78 0-44-35-79-79-79z m0 140c-34 0-62-27-62-61 0-35 28-62 62-62 34 0 62 27 62 62 0 34-28 61-62 61z"/>
<glyph glyph-name="icomoon-2" unicode="&#80;" d="M66 23c-2 0-3 1-5 2-3 3-4 6-3 10l35 95-84 0c-5 0-9 4-9 9l0 341c0 5 4 9 9 9l494 0c5 0 9-4 9-9l0-341c0-5-4-9-9-9l-273 0-159-105c-1-1-3-2-5-2z m-49 124l88 0c3 0 5-1 7-3 1-3 2-6 1-8l-30-83 140 93c1 1 3 1 5 1l267 0 0 324-478 0 0-324z"/>
<glyph glyph-name="icomoon-3" unicode="&#81;" d="M247 43l-238 0c-5 0-9 4-9 8l0 410c0 5 4 8 9 8l238 0c5 0 9-3 9-8l0-410c0-4-4-8-9-8z m-230 17l222 0 0 392-222 0z m222 307l-222 0c-5 0-8 4-8 8 0 5 3 9 8 9l222 0c5 0 8-4 8-9 0-4-3-8-8-8z m264-324l-256 0c-4 0-8 4-8 8l0 410c0 5 4 8 8 8l256 0c5 0 9-3 9-8l0-410c0-4-4-8-9-8z m-247 17l239 0 0 392-239 0z m239 307l-239 0c-5 0-9 4-9 8 0 5 4 9 9 9l239 0c5 0 8-4 8-9 0-4-3-8-8-8z m-427 47c0-6-5-11-11-11-5 0-10 5-10 11 0 6 5 11 10 11 6 0 11-5 11-11z m43 0c0-6-5-11-11-11-6 0-11 5-11 11 0 6 5 11 11 11 6 0 11-5 11-11z m42 0c0-6-4-11-10-11-6 0-11 5-11 11 0 6 5 11 11 11 6 0 10-5 10-11z m150 0c0-6-5-11-11-11-6 0-11 5-11 11 0 6 5 11 11 11 6 0 11-5 11-11z m42 0c0-6-4-11-10-11-6 0-11 5-11 11 0 6 5 11 11 11 6 0 10-5 10-11z m43 0c0-6-5-11-11-11-5 0-10 5-10 11 0 6 5 11 10 11 6 0 11-5 11-11z"/>
<glyph glyph-name="icomoon-5" unicode="&#83;" d="M503 68l-494 0c-5 0-9 4-9 9l0 358c0 5 4 9 9 9l494 0c5 0 9-4 9-9l0-358c0-5-4-9-9-9z m-486 17l478 0 0 342-478 0z m478 256l-478 0c-5 0-8 4-8 9 0 5 3 8 8 8l478 0c5 0 8-3 8-8 0-5-3-9-8-9z m-406 60c0-6-4-11-10-11-6 0-11 5-11 11 0 6 5 11 11 11 6 0 10-5 10-11z m43 0c0-6-5-11-11-11-5 0-10 5-10 11 0 6 5 11 10 11 6 0 11-5 11-11z m43 0c0-6-5-11-11-11-6 0-11 5-11 11 0 6 5 11 11 11 6 0 11-5 11-11z"/>
<glyph glyph-name="icomoon" unicode="&#78;" d="M9 0c-3 0-5 1-7 3-3 3-3 8 1 12l165 164c4 3 9 3 12 0 4-4 4-9 0-12l-165-165c-2-1-4-2-6-2z m337 336c-2 0-4 1-6 2-3 4-4 9 0 12l157 159c4 4 9 4 12 1 4-4 4-9 1-13l-158-159c-2-1-4-2-6-2z m157-336c-2 0-4 1-6 3l-157 164c-4 3-3 9 0 12 3 3 9 3 12 0l158-165c3-3 3-8-1-12-1-1-3-2-6-2z m-329 336c-2 0-4 1-6 2l-165 159c-4 4-4 9-1 12 4 4 9 4 12 1l166-159c4-4 4-9 0-13-1-1-3-2-6-2z m329 65c-4 0-8 4-8 9l0 85-85 0c-5 0-9 4-9 8 0 5 4 9 9 9l93 0c5 0 9-4 9-9l0-93c0-5-4-9-9-9z m0-401l-93 0c-5 0-9 4-9 9 0 4 4 8 9 8l85 0 0 85c0 5 4 9 8 9 5 0 9-4 9-9l0-93c0-5-4-9-9-9z m-494 401c-5 0-9 4-9 9l0 93c0 5 4 9 9 9l93 0c5 0 9-4 9-9 0-4-4-8-9-8l-85 0 0-85c0-5-4-9-8-9z m93-401l-93 0c-5 0-9 4-9 9l0 93c0 5 4 9 9 9 4 0 8-4 8-9l0-85 85 0c5 0 9-4 9-8 0-5-4-9-9-9z"/>
<glyph glyph-name="icomoon-7" unicode="&#85;" d="M72 357c-20 0-37 17-37 38 0 21 17 38 37 38 21 0 38-17 38-38 0-20-17-38-38-38z m0 59c-11 0-20-9-20-21 0-11 9-20 20-20 12 0 21 9 21 20 0 12-9 21-21 21z m397-30l-324 0c-5 0-9 4-9 8 0 5 4 9 9 9l324 0c5 0 8-4 8-9 0-4-3-8-8-8z m-397-135c-20 0-37 17-37 38 0 21 17 38 37 38 21 0 38-17 38-38 0-21-17-38-38-38z m0 58c-11 0-20-9-20-20 0-12 9-21 20-21 12 0 21 9 21 21 0 11-9 20-21 20z m397-25l-324 0c-5 0-9 3-9 8 0 5 4 9 9 9l324 0c5 0 8-4 8-9 0-5-3-8-8-8z m-397-140c-20 0-37 17-37 38 0 21 17 38 37 38 21 0 38-17 38-38 0-21-17-38-38-38z m0 59c-11 0-20-10-20-21 0-11 9-21 20-21 12 0 21 10 21 21 0 11-9 21-21 21z m397-22l-324 0c-5 0-9 4-9 9 0 4 4 8 9 8l324 0c5 0 8-4 8-8 0-5-3-9-8-9z m0-102l-324 0c-5 0-9 4-9 8 0 5 4 9 9 9l324 0c5 0 8-4 8-9 0-4-3-8-8-8z"/>
<glyph glyph-name="icomoon-9" unicode="&#87;" d="M503 68l-411 0c-3 0-5 1-7 3l-83 96c-1 1-2 3-2 5l0 263c0 5 4 9 9 9l494 0c5 0 9-4 9-9l0-358c0-5-4-9-9-9z m-408 17l400 0 0 342-478 0 0-251z m-1-8c-5 0-9 4-9 8l0 86-68 0c-5 0-8 4-8 8 0 5 3 9 8 9l77 0c5 0 8-4 8-9l0-94c0-4-3-8-8-8z m350 264l-359 0c-4 0-8 4-8 9 0 5 4 8 8 8l359 0c4 0 8-3 8-8 0-5-4-9-8-9z m-86-68l-273 0c-4 0-8 4-8 9 0 4 4 8 8 8l273 0c5 0 9-4 9-8 0-5-4-9-9-9z"/>
<glyph glyph-name="icomoon-10" unicode="&#88;" d="M334 85l-326 0c-5 0-9 4-9 9l0 324c0 5 4 9 9 9l326 0c2 0 4-1 5-3l171-162c2-1 3-4 3-6 0-2-1-5-3-6l-171-162c-1-2-3-3-5-3z m-318 17l314 0 162 154-162 154-314 0z"/>
<glyph glyph-name="icomoon-4" unicode="&#82;" d="M151 116c-2 0-5 1-6 3l-131 131c-4 3-4 9 0 12l131 131c3 3 9 3 12 0 3-3 3-9 0-12l-125-125 125-125c3-3 3-9 0-12-2-2-4-3-6-3z m210 0c-2 0-4 1-6 3-3 3-3 9 0 12l125 125-125 125c-3 3-3 9 0 12 3 3 9 3 12 0l131-131c4-3 4-9 0-12l-131-131c-1-2-4-3-6-3z m-157-7c-1 0-2 0-3 0-4 2-6 7-5 11l107 278c2 4 7 6 11 5 4-2 7-7 5-11l-107-278c-1-3-4-5-8-5z"/>
<glyph glyph-name="icomoon-8" unicode="&#86;" d="M463 4c-2 0-4 1-6 2l-121 122-56-63c-2-2-5-3-8-2-3 0-5 2-6 5l-127 296c-1 3 0 7 2 9 3 3 6 4 10 2l295-126c3-1 5-4 5-7 1-2 0-5-3-7l-64-57 122-123c3-3 3-9 0-12l-37-37c-1-1-4-2-6-2z m-128 145c3 0 5-1 7-3l121-122 25 25-123 123c-2 2-3 4-2 6 0 3 1 5 2 6l62 55-264 112 113-264 53 59c2 1 4 2 6 3 0 0 0 0 0 0z m-177 78c-1 0-1 0-2 1-48 11-82 54-82 103 0 59 48 107 106 107 51 0 95-36 105-85 1-4-2-9-7-10-4-1-9 2-10 7-9 41-45 71-88 71-49 0-89-40-89-90 0-41 28-77 69-87 5-1 7-5 6-10-1-4-4-7-8-7z m22-73c-97 0-176 80-176 177 0 98 79 177 176 177 98 0 177-79 177-177 0-4-3-8-8-8-5 0-9 4-9 8 0 89-71 160-160 160-88 0-159-71-159-160 0-88 71-159 159-159 5 0 9-4 9-9 0-5-4-9-9-9z"/>
<glyph glyph-name="icomoon-11" unicode="&#89;" d="M184 339l-86 0c-4 0-8 4-8 9 0 4 4 8 8 8l86 0c4 0 8-4 8-8 0-5-4-9-8-9z m136 0l-85 0c-5 0-9 4-9 9 0 4 4 8 9 8l85 0c5 0 9-4 9-8 0-5-4-9-9-9z m-105-256l-5 0c-4 0-7 3-8 6l-89 256c-1 4 1 9 6 11 4 1 9-1 10-5l83-240 56 161c2 4 7 6 11 5 5-2 7-7 6-11l-62-177c-1-3-5-6-8-6z m147 60c-4 0-7 2-8 5l-69 197c-2 4 1 9 5 11 5 1 10-1 11-5l69-197c1-4-1-9-6-11 0 0-1 0-2 0z m-128 0c-4 0-7 2-8 5l-69 197c-2 4 1 9 5 11 5 1 10-1 11-5l69-197c1-4-1-9-6-11 0 0-1 0-2 0z m109-60l-5 0c-4 0-7 3-8 6l-89 256c-2 4 1 9 5 11 5 1 9-1 11-5l83-240 54 154c2 7 22 68-8 103-3 4-3 9 1 12 4 3 9 3 12-1 35-42 15-107 11-119l-59-171c-1-3-5-6-8-6z m-87 412c132 0 239-107 239-239 0-132-107-239-239-239-132 0-239 107-239 239 0 132 107 239 239 239z m0 17c-141 0-256-115-256-256 0-141 115-256 256-256 141 0 256 115 256 256 0 141-115 256-256 256z"/>
<glyph glyph-name="icomoon-12" unicode="&#90;" d="M442 85l-434 0c-5 0-8 4-8 8l0 264c0 4 3 8 8 8l434 0c5 0 8-4 8-8l0-264c0-4-3-8-8-8z m-426 16l419 0 0 248-419 0z m143 46l-85 0c-15 0-27 13-27 28l0 100c0 15 12 28 27 28l85 0c15 0 27-13 27-28l0-100c0-15-12-28-27-28z m-85 140c-7 0-12-5-12-12l0-100c0-7 5-12 12-12l85 0c7 0 12 5 12 12l0 100c0 7-5 12-12 12z m314-47l-171 0c-4 0-7 4-7 8 0 5 3 8 7 8l171 0c4 0 8-3 8-8 0-4-4-8-8-8z m0-46l-171 0c-4 0-7 3-7 8 0 4 3 7 7 7l171 0c4 0 8-3 8-7 0-5-4-8-8-8z m85-54c-4 0-7 3-7 7l0 233-388 0c-5 0-8 4-8 8 0 4 3 8 8 8l395 0c5 0 8-4 8-8l0-241c0-4-3-7-8-7z m31 31c-4 0-7 3-7 7l0 233-388 0c-5 0-8 4-8 8 0 4 3 8 8 8l395 0c5 0 8-4 8-8l0-241c0-4-3-7-8-7z"/>
<glyph glyph-name="icomoon-13" unicode="&#48;" d="M461 0l-410 0c-5 0-8 4-8 9l0 494c0 5 3 9 8 9l410 0c4 0 8-4 8-9l0-494c0-5-4-9-8-9z m-401 17l392 0 0 478-392 0z m311 222l-222 0c-3 0-6 1-8 4-1 3-1 6 0 8l50 98c1 2 3 3 5 4 3 1 5 0 7-1l49-34 49 84c2 3 5 5 8 4 3 0 6-2 7-5l63-150c1-3 1-6-1-8-1-3-4-4-7-4z m-208 17l196 0-52 123-44-78c-2-2-4-4-6-4-2-1-5 0-7 1l-49 34z m21 122c-17 0-30 13-30 30 0 16 13 30 30 30 16 0 30-14 30-30 0-17-14-30-30-30z m0 43c-7 0-13-6-13-13 0-7 6-13 13-13 7 0 12 6 12 13 0 7-5 13-12 13z m234-250l-324 0c-5 0-9 4-9 8l0 273c0 5 4 9 9 9l324 0c5 0 9-4 9-9l0-273c0-4-4-8-9-8z m-316 17l308 0 0 256-308 0z m86-86l-86 0c-4 0-8 4-8 9 0 5 4 8 8 8l86 0c4 0 8-3 8-8 0-5-4-9-8-9z m153-34l-239 0c-4 0-8 4-8 9 0 4 4 8 8 8l239 0c5 0 9-4 9-8 0-5-4-9-9-9z"/>
<glyph glyph-name="icomoon-14" unicode="&#49;" d="M416 0l-320 0c-53 0-96 43-96 96l0 320c0 53 43 96 96 96l320 0c53 0 96-43 96-96l0-320c0-53-43-96-96-96z m-320 495c-44 0-79-35-79-79l0-320c0-44 35-79 79-79l320 0c44 0 79 35 79 79l0 320c0 44-35 79-79 79z m-79-393l478 0 0-17-478 0z m440 52l-399 0c-3 0-6 1-7 4-2 3-2 7 0 9l116 159c3 3 7 4 11 2l52-26 83 111c1 2 4 3 7 3 3 0 5-2 7-4l137-246c2-2 2-6 0-8-1-3-4-4-7-4z m-382 17l367 0-124 221-79-106c-2-3-7-4-11-2l-51 26-102-139z m41 190c-20 0-37 17-37 38 0 21 17 38 37 38 21 0 38-17 38-38 0-21-17-38-38-38z m0 59c-11 0-20-10-20-21 0-11 9-20 20-20 12 0 21 9 21 20 0 11-9 21-21 21z"/>
<glyph glyph-name="icomoon-15" unicode="&#50;" d="M416 0l-320 0c-53 0-96 43-96 96l0 320c0 53 43 96 96 96l320 0c53 0 96-43 96-96l0-320c0-53-43-96-96-96z m-320 495c-44 0-79-35-79-79l0-320c0-44 35-79 79-79l320 0c44 0 79 35 79 79l0 320c0 44-35 79-79 79z m286-358l-235 0c-53 0-96 42-96 95l0 133c0 53 43 96 96 96l235 0c53 0 96-43 96-96l0-133c0-53-43-95-96-95z m-235 307c-44 0-79-35-79-79l0-133c0-43 35-78 79-78l235 0c44 0 79 35 79 78l0 133c0 44-35 79-79 79z m92-171l17 0 0-102-17 0z m-7-102c-15 0-28 6-37 16-10 10-14 25-13 40 1 4 5 8 9 8 19-1 34-8 44-19 8-10 12-23 11-37-1-4-4-7-8-8-2 0-4 0-6 0z m-33 46c1-7 4-14 8-19 6-6 13-9 22-10-1 7-3 12-7 17-5 5-13 10-23 12z m50 48c-27 0-48 21-48 48 0 27 21 49 48 49 27 0 49-22 49-49 0-27-22-48-49-48z m0 80c-17 0-31-14-31-32 0-17 14-31 31-31 18 0 32 14 32 31 0 18-14 32-32 32z m58 26c-2 0-3 1-4 1-4 2-6 7-4 12 3 6 1 14-6 17-6 3-14 0-17-6-2-4-7-6-11-4-5 3-6 8-4 12 7 15 25 21 40 13 15-7 21-25 13-40-1-3-4-5-7-5z m30-74c-4 0-8 3-9 7 0 5 3 9 7 10 7 1 12 7 11 14-1 7-7 12-14 11-5-1-9 2-10 7-1 5 2 9 7 10 16 2 31-9 34-25 3-16-9-32-25-34 0 0-1 0-1 0z m-33-79c-1 0-2 0-2 0-8 1-16 5-21 11-3 3-2 9 1 12 4 3 9 2 12-1 3-3 6-5 9-5 4 0 7 1 9 3 6 5 6 13 2 18-3 4-3 9 1 12 4 3 9 3 12-1 11-12 9-31-4-42-5-4-12-7-19-7z m-140 62c-16 0-29 12-30 28 0 8 2 16 8 22 5 6 13 9 21 9 4 1 8-3 9-8 0-4-4-8-9-9-3 0-6-1-9-4-2-2-3-6-3-9 0-7 7-12 13-12 5 0 9-4 9-8 1-5-3-9-8-9 0 0-1 0-1 0z m20 84c-3 0-5 1-7 4-9 13-5 32 8 41 7 4 15 6 23 5 7-2 14-7 19-13 2-4 1-9-3-12-4-3-9-2-12 2-1 3-4 5-8 6-3 0-6 0-9-2-6-4-8-12-4-18 3-4 2-9-2-12-2-1-3-1-5-1z"/>
<glyph glyph-name="icomoon-16" unicode="&#51;" d="M435 0l-311 0c-36 0-56 34-56 66l0 361c0 0 0 0 0 0 0 1 0 1 0 2l0 21c0 33 31 62 66 62l293 0c4 0 8-4 8-9 0-4-4-8-8-8l-293 0c-26 0-49-21-49-45l0-21c0-26 25-54 49-54l301 0c5 0 9-3 9-8l0-358c0-5-4-9-9-9z m-350 384l0-318c0-24 14-49 39-49l303 0 0 341-293 0c-18 0-36 11-49 26z m308 43l-274 0c-4 0-8 3-8 8 0 5 4 9 8 9l274 0c4 0 8-4 8-9 0-5-4-8-8-8z"/>
<glyph glyph-name="icomoon-18" unicode="&#53;" d="M251 155c-62 0-113 69-116 129-14 4-24 16-24 29l0 43c0 12 11 21 17 26l0 38c0 40 28 71 66 72 8 3 41 16 75 16 52 0 81-31 81-88l0-35c28-1 34-12 34-29l0-43c0-14-8-25-20-29-4-61-52-129-113-129z m18 336c-34 0-69-15-69-15-1-1-3-1-4-1-29 0-51-23-51-55l0-43c0-3-2-6-4-7-6-3-13-10-13-14l0-43c0-6 7-13 15-13 5 0 8-4 8-8 0-54 45-120 100-120 53 0 96 66 96 120 0 4 4 8 9 8 7 0 11 7 11 13l0 43c0 9 0 13-26 13-4 0-8 3-8 8l0 43c0 48-21 71-64 71z m-235-487c-5 0-8 4-8 8l0 24c0 60 40 96 108 96l28 0 32 46c3 4 8 5 12 2 4-2 5-8 2-11l-35-51c-1-2-4-3-7-3l-32 0c-58 0-91-29-91-79l0-24c0-4-4-8-9-8z m444 0c-5 0-9 4-9 8l0 24c0 58-51 79-98 79l-32 0c-3 0-6 1-8 4l-33 53c-3 4-1 9 3 12 4 2 9 1 11-3l31-49 28 0c70 0 115-38 115-96l0-24c0-4-3-8-8-8z m-226 66c-2 0-3 0-4 1l-86 45c-4 2-6 7-3 11 2 4 7 6 11 4l82-43 83 43c4 2 9 0 11-4 2-4 1-9-3-11l-88-45c-1-1-2-1-3-1z"/>
<glyph glyph-name="icomoon-17" unicode="&#52;" d="M8 130c-2 0-3 1-5 2-2 1-4 4-4 7l0 234c0 3 2 6 4 7 3 2 6 2 9 0l202-117c3-1 5-4 5-7 0-3-2-6-5-7l-202-117c-1-1-3-2-4-2z m8 228l0-204 177 102z m275-324c-78 0-148 40-189 106-3 4-1 10 3 12 4 3 9 1 11-3 38-61 103-98 175-98 113 0 205 92 205 205 0 113-92 205-205 205-72 0-137-37-175-98-2-4-7-6-11-3-4 2-6 8-3 12 41 66 111 106 189 106 122 0 222-100 222-222 0-122-100-222-222-222z m0 64c-54 0-104 28-133 74-3 4-2 10 2 12 4 3 10 1 12-3 26-41 71-66 119-66 78 0 141 63 141 141 0 78-63 141-141 141-48 0-93-25-119-66-2-4-8-6-12-3-4 2-5 8-2 12 29 46 79 74 133 74 87 0 158-71 158-158 0-87-71-158-158-158z"/>
<glyph glyph-name="icomoon-19" unicode="&#54;" d="M367 397c-51 0-137 8-137 40 0 32 86 41 137 41 47 0 136-9 136-41 0-32-85-40-136-40z m0 64c-74 0-118-16-120-24 2-8 46-23 120-23 74 0 118 15 119 23-1 8-45 24-119 24z m-152-342l0 17c74 0 118 16 120 24 0 0-2 4-17 10l6 16c18-7 28-16 28-26 0-32-86-41-137-41z m-2-42c-50 0-136 8-136 40l0 28 17 0 0-28c1-8 45-23 119-23 80 0 119 17 120 24l0 44 17 0 0-45c0-32-89-40-137-40z m-19 85c-51 0-137 9-137 41l17 0c2-8 45-24 120-24 74 0 118 16 119 24 0 0-1 2-6 5l8 15c10-6 15-13 15-20 0-32-86-41-136-41z m2-43c-50 0-136 9-136 41l0 37c0 4 4 8 8 8 5 0 9-4 9-8l0-37c1-8 45-23 119-23 80 0 118 17 120 23l0 37c0 4 4 8 8 8 5 0 9-4 9-8l0-37c0-32-90-40-137-40z m-51 107c-51 0-136 9-136 41 0 32 85 40 136 40 47 0 137-8 137-40 0-32-86-41-137-41z m0 64c-74 0-118-15-119-23 1-8 45-24 119-24 74 0 118 16 120 24-2 8-46 23-120 23z m0-107c-51 0-136 9-136 41l0 41 17 0 0-41c1-8 45-23 119-23 80 0 118 17 120 23l0 41 17 0 0-41c0-32-90-40-137-40z m46-106c-58 0-124 10-143 28-4 4-5 9-5 12 0 21 32 26 42 28l3-17c-23-4-28-9-28-11 3-8 57-23 134-23l0-17c-1 0-2 0-3 0z m-12-43c-51 0-136 9-136 41l0 36c0 5 3 9 8 9 5 0 9-4 9-9l0-36c1-8 45-24 119-24 80 0 118 17 120 24l0 19c0 5 3 9 8 9 5 0 9-4 9-9l0-19c0-32-90-41-137-41z m188 299c-51 0-137 8-137 40 0 5 4 9 9 9 5 0 8-4 8-9 2-8 46-23 120-23 74 0 118 15 119 23 0 5 4 9 9 9 5 0 8-4 8-9 0-32-85-40-136-40z m0-64c-51 0-137 8-137 40 0 5 4 9 9 9 5 0 8-4 8-9 2-8 46-23 120-23 74 0 118 15 119 23 0 5 4 9 9 9 5 0 8-4 8-9 0-32-85-40-136-40z m0-64c-24 0-69 3-89 6-4 0-8 5-7 9 1 5 5 8 10 7 18-2 63-5 86-5 74 0 118 15 119 23 0 5 4 9 9 9 5 0 8-4 8-9 0-32-85-40-136-40z m0-64c-7 0-15 0-22 0-4 0-8 4-8 9 0 5 4 8 9 8 7 0 14 0 21 0 74 0 118 15 119 23 0 5 4 9 9 9 5 0 8-4 8-9 0-32-85-40-136-40z m-137 295l17 0 0-154-17 0z m136-355c-7 0-34 3-47 14-4 3-4 9-1 12 3 4 8 4 12 1 8-7 29-10 36-10 74 0 119 16 120 24l0 314c0 4 4 8 9 8 5 0 8-4 8-8l0-314c0-32-90-41-137-41z"/>
<glyph glyph-name="icomoon-21" unicode="&#56;" d="M245 133l-3 0c-40 0-75 34-78 76-19 5-32 27-32 46l0 21c0 10 0 26 18 29l0 29c0 36 19 60 49 61 6 2 12 4 19 6 22 9 45 18 66 18 35 0 53-27 53-79l0-38c7-4 17-14 17-26l0-21c0-19-13-41-32-46-4-42-37-76-77-76z m39 268c-18 0-39-8-60-16-7-2-14-5-21-7 0 0-1 0-2 0-25 0-34-23-34-44l0-36c0-5-4-9-9-9-8 0-8 0-8-13l0-21c0-14 9-30 22-30 5 0 8-4 8-8 0-36 29-67 62-67l3 0c33 0 60 30 60 67 0 4 4 8 9 8 12 0 23 17 23 30l0 21c0 5-7 11-12 14-3 2-5 5-5 8l0 42c0 55-19 61-36 61z m144-387l-364 0c-5 0-9 4-9 8 0 69 48 118 117 118 4 0 8-4 8-9 0-5-4-8-8-8-56 0-95-38-99-92l346 0c-4 56-43 94-99 94-5 0-9 4-9 8 0 5 4 9 9 9 67 0 116-50 116-120 0-4-4-8-8-8z m-417 275c-5 0-9 4-9 9 0 34 28 61 62 61 5 0 9-3 9-8 0-5-4-9-9-9-25 0-45-20-45-44 0-5-4-9-8-9z m490 0c-4 0-8 4-8 9 0 24-20 44-45 44-5 0-9 4-9 9 0 5 4 8 9 8 34 0 62-27 62-61 0-5-4-9-9-9z m-394 64c-33 0-52 71-52 94 0 28 23 51 52 51 28 0 51-23 51-51 0-23-19-94-51-94z m0 128c-19 0-34-15-34-34 0-24 19-77 34-77 14 0 34 53 34 77 0 19-16 34-34 34z m298-128c-32 0-51 71-51 94 0 28 23 51 51 51 29 0 52-23 52-51 0-23-19-94-52-94z m0 128c-19 0-34-15-34-34 0-24 20-77 34-77 15 0 34 53 34 77 0 19-15 34-34 34z"/>
<glyph glyph-name="icomoon-23" unicode="&#33;" d="M354 252l-204 0c-5 0-9 4-9 8 0 5 4 9 9 9l204 0c5 0 9-4 9-9 0-4-4-8-9-8z m-237-111c-63 0-115 51-115 115 0 64 52 115 115 115 46 0 87-27 106-69 2-4 0-9-5-11-4-2-9 0-11 4-15 36-51 59-90 59-54 0-98-44-98-98 0-54 44-98 98-98 39 0 75 23 90 59 2 4 7 6 11 4 5-2 7-7 5-11-19-42-60-69-106-69z m278 0c-46 0-87 27-106 69-2 4 0 9 5 11 4 2 9 0 11-4 15-36 51-59 90-59 54 0 98 44 98 98 0 54-44 98-98 98-39 0-75-23-90-59-2-4-7-6-11-4-5 2-7 7-5 11 19 42 60 69 106 69 63 0 115-51 115-115 0-64-52-115-115-115z"/>
<glyph glyph-name="icomoon-24" unicode="&#34;" d="M503 0l-494 0c-5 0-9 4-9 9l0 494c0 5 4 9 9 9l494 0c5 0 9-4 9-9l0-494c0-5-4-9-9-9z m-486 17l478 0 0 478-478 0z"/>
<glyph glyph-name="icomoon-6" unicode="&#84;" d="M503 0l-494 0c-5 0-9 4-9 9l0 494c0 5 4 9 9 9l494 0c5 0 9-4 9-9l0-494c0-5-4-9-9-9z m-486 17l478 0 0 478-478 0z m427 68l-376 0c-4 0-8 4-8 9 0 5 4 8 8 8l376 0c4 0 8-3 8-8 0-5-4-9-8-9z m-265 130c-1 0-3 0-4 1-3 2-4 5-4 8l0 197c0 3 1 6 4 7 3 2 6 2 8 0l171-98c3-2 4-5 4-8 0-3-1-6-4-7l-171-99c-1-1-2-1-4-1z m9 191l0-168 145 84z m-45-353c-23 0-41 18-41 41 0 22 18 40 41 40 22 0 40-18 40-40 0-22-18-41-40-41z m0 64c-13 0-24-10-24-23 0-13 11-24 24-24 13 0 23 11 23 24 0 13-10 23-23 23z"/>
<glyph glyph-name="icomoon-25" unicode="&#35;" d="M256 385c100 0 181-81 181-181 0-100-81-182-181-182-100 0-181 82-181 182 0 100 81 181 181 181z m0 21c-112 0-203-90-203-202 0-112 91-203 203-203 112 0 203 91 203 203 0 112-91 202-203 202z m56 20l-103 0c-4 0-8 3-8 8l0 68c0 5 4 9 8 9l103 0c4 0 8-4 8-9l0-68c0-5-4-8-8-8z m-94 17l85 0 0 51-85 0z m0-17l17 0 0-35-17 0z m68 0l17 0 0-35-17 0z m-30-369c-81 0-147 66-147 147 0 81 66 147 147 147 81 0 147-66 147-147 0-81-66-147-147-147z m0 277c-72 0-130-59-130-130 0-72 58-130 130-130 72 0 130 58 130 130 0 71-58 130-130 130z m0-128c-2 0-4 1-6 2-3 4-3 9 0 12l64 64c3 4 9 4 12 0 3-3 3-8 0-12l-64-64c-2-1-4-2-6-2z"/>
<glyph glyph-name="icomoon-22" unicode="&#57;" d="M55 211c-5 0-8 4-8 9 0 146 118 264 264 264 5 0 9-4 9-8 0-5-4-9-9-9-136 0-247-111-247-247 0-5-4-9-9-9z m0-5c0 0-1 0-1 0-3 0-5 2-7 5l-37 80c-2 4 0 9 4 11 4 2 9 1 11-4l32-67 45 58c3 4 9 4 12 1 4-2 5-8 2-12l-54-69c-2-2-4-3-7-3z m256 184c94 0 171-76 171-170 0-94-77-171-171-171-94 0-171 77-171 171 0 94 77 170 171 170z m0 22c-106 0-192-86-192-192 0-106 86-192 192-192 106 0 192 86 192 192 0 106-86 192-192 192z m0-201c-2 0-4 1-6 3-3 3-3 8 0 12l85 85c4 3 9 3 12 0 4-3 4-9 0-12l-85-85c-2-2-4-3-6-3z m0 0c-2 0-4 1-6 3l-64 64c-3 3-3 8 0 12 3 3 9 3 12 0l64-64c3-4 3-9 0-12-2-2-4-3-6-3z"/>
<glyph glyph-name="icomoon-26" unicode="&#36;" d="M141 355l-120 0c-4 0-8 4-8 9l0 119c0 5 4 9 8 9l120 0c5 0 8-4 8-9l0-119c0-5-3-9-8-9z m-111 17l102 0 0 103-102 0z m51 24c-1 0-1 0-2 0-3 1-5 2-6 5l-20 41c-2 5-1 10 4 12 4 2 9 0 11-4l16-32 100 78c4 3 9 3 12-1 3-4 2-9-1-12l-109-85c-1-2-3-2-5-2z m60-211l-120 0c-4 0-8 3-8 8l0 120c0 4 4 8 8 8l120 0c5 0 8-4 8-8l0-120c0-5-3-8-8-8z m-111 17l102 0 0 102-102 0z m51 23c-1 0-1 0-2 0-3 1-5 3-6 5l-20 42c-2 4-1 9 4 11 4 2 9 0 11-4l16-32 100 79c4 3 9 2 12-2 3-3 2-9-1-12l-109-85c-1-1-3-2-5-2z m60-211l-120 0c-4 0-8 4-8 8l0 120c0 5 4 8 8 8l120 0c5 0 8-3 8-8l0-120c0-4-3-8-8-8z m-111 17l102 0 0 102-102 0z m461 68l-239 0c-5 0-9 4-9 9 0 4 4 8 9 8l239 0c4 0 8-4 8-8 0-5-4-9-8-9z m0-51l-239 0c-5 0-9 4-9 9 0 4 4 8 9 8l239 0c4 0 8-4 8-8 0-5-4-9-8-9z m0 222l-239 0c-5 0-9 4-9 8 0 5 4 9 9 9l239 0c4 0 8-4 8-9 0-4-4-8-8-8z m0-51l-239 0c-5 0-9 3-9 8 0 5 4 9 9 9l239 0c4 0 8-4 8-9 0-5-4-8-8-8z m0 222l-239 0c-5 0-9 3-9 8 0 5 4 9 9 9l239 0c4 0 8-4 8-9 0-5-4-8-8-8z m0-52l-239 0c-5 0-9 4-9 9 0 5 4 8 9 8l239 0c4 0 8-3 8-8 0-5-4-9-8-9z"/>
<glyph glyph-name="icomoon-27" unicode="&#37;" d="M469 4l-426 0c-24 0-43 19-43 43l0 375c0 24 19 43 43 43l426 0c24 0 43-19 43-43l0-375c0-24-19-43-43-43z m-426 444c-14 0-26-11-26-26l0-375c0-14 12-26 26-26l426 0c14 0 26 12 26 26l0 375c0 15-12 26-26 26z m85-26c-5 0-9 4-9 9l0 68c0 5 4 9 9 9 5 0 9-4 9-9l0-68c0-5-4-9-9-9z m256 0c-5 0-9 4-9 9l0 68c0 5 4 9 9 9 5 0 9-4 9-9l0-68c0-5-4-9-9-9z m43-59l-342 0c-4 0-8 3-8 8 0 5 4 9 8 9l342 0c4 0 8-4 8-9 0-5-4-8-8-8z m-273-69l-69 0c-4 0-8 4-8 9 0 5 4 8 8 8l69 0c4 0 8-3 8-8 0-5-4-9-8-9z m136 0l-68 0c-5 0-9 4-9 9 0 5 4 8 9 8l68 0c5 0 9-3 9-8 0-5-4-9-9-9z m137 0l-69 0c-4 0-8 4-8 9 0 5 4 8 8 8l69 0c4 0 8-3 8-8 0-5-4-9-8-9z m-273-68l-69 0c-4 0-8 4-8 9 0 4 4 8 8 8l69 0c4 0 8-4 8-8 0-5-4-9-8-9z m136 0l-68 0c-5 0-9 4-9 9 0 4 4 8 9 8l68 0c5 0 9-4 9-8 0-5-4-9-9-9z m137 0l-69 0c-4 0-8 4-8 9 0 4 4 8 8 8l69 0c4 0 8-4 8-8 0-5-4-9-8-9z m-273-68l-69 0c-4 0-8 4-8 8 0 5 4 9 8 9l69 0c4 0 8-4 8-9 0-4-4-8-8-8z m136 0l-68 0c-5 0-9 4-9 8 0 5 4 9 9 9l68 0c5 0 9-4 9-9 0-4-4-8-9-8z m137 0l-69 0c-4 0-8 4-8 8 0 5 4 9 8 9l69 0c4 0 8-4 8-9 0-4-4-8-8-8z m-273-68l-69 0c-4 0-8 3-8 8 0 5 4 9 8 9l69 0c4 0 8-4 8-9 0-5-4-8-8-8z m136 0l-68 0c-5 0-9 3-9 8 0 5 4 9 9 9l68 0c5 0 9-4 9-9 0-5-4-8-9-8z m137 0l-69 0c-4 0-8 3-8 8 0 5 4 9 8 9l69 0c4 0 8-4 8-9 0-5-4-8-8-8z"/>
<glyph glyph-name="icomoon-28" unicode="&#38;" d="M256 2c-140 0-254 114-254 254 0 140 114 254 254 254 140 0 254-114 254-254 0-140-114-254-254-254z m0 491c-131 0-237-106-237-237 0-131 106-237 237-237 131 0 237 106 237 237 0 131-106 237-237 237z m0-406c-93 0-169 76-169 169 0 93 76 169 169 169 93 0 169-76 169-169 0-93-76-169-169-169z m0 320c-84 0-151-67-151-151 0-84 67-151 151-151 84 0 151 67 151 151 0 84-67 151-151 151z"/>
<glyph glyph-name="icomoon-29" unicode="&#39;" d="M0 375l512 0 0-17-512 0z m0-221l512 0 0-17-512 0z m68 102l-17 0c-5 0-8 4-8 9 0 4 3 8 8 8l17 0c5 0 9-4 9-8 0-5-4-9-9-9z m103 0l-17 0c-5 0-9 4-9 9 0 4 4 8 9 8l17 0c4 0 8-4 8-8 0-5-4-9-8-9z m102 0l-17 0c-5 0-9 4-9 9 0 4 4 8 9 8l17 0c5 0 9-4 9-8 0-5-4-9-9-9z m102 0l-17 0c-4 0-8 4-8 9 0 4 4 8 8 8l17 0c5 0 9-4 9-8 0-5-4-9-9-9z m103 0l-17 0c-5 0-9 4-9 9 0 4 4 8 9 8l17 0c5 0 8-4 8-8 0-5-3-9-8-9z"/>
<glyph glyph-name="icomoon-30" unicode="&#40;" d="M395 13c-52 0-94 42-94 94 0 1 0 3 0 5l-129 71c-17-11-35-17-55-17-51 0-94 42-94 94 0 51 43 93 94 93 21 0 40-6 56-18l128 67c0 1 0 2 0 3 0 52 42 94 94 94 51 0 94-42 94-94 0-51-43-94-94-94-20 0-40 7-56 19l-128-67c0-1 0-2 0-3 0-2 0-4 0-6l129-71c17 11 35 18 55 18 51 0 94-43 94-94 0-52-43-94-94-94z m-224 189c1 0 3 0 4-1l139-77c3-2 5-5 5-8l-1-3c0-2 0-4 0-6 0-43 34-77 77-77 42 0 76 34 76 77 0 42-34 76-76 76-18 0-34-6-48-17-3-2-7-3-10-1l-139 77c-3 2-5 5-5 9l1 3c0 2 0 3 0 6 0 1 0 2 0 4l-1 3c0 3 2 7 5 8l138 73c3 2 7 1 9-1 15-12 32-19 50-19 42 0 77 35 77 77 0 43-35 77-77 77-43 0-77-34-77-77 0-1 0-3 0-4l1-3c0-4-2-7-5-9l-138-72c-3-2-7-1-9 1-15 12-32 18-50 18-42 0-76-34-76-77 0-42 34-76 76-76 18 0 34 6 48 17 2 1 4 2 6 2z"/>
<glyph glyph-name="icomoon-31" unicode="&#41;" d="M282 0l-86 0c-4 0-8 4-8 9l0 213-77 0c-5 0-9 4-9 8l0 86c0 4 4 8 9 8l77 0 0 83c0 58 49 105 110 105l103 0c5 0 9-4 9-9l0-68c0-5-4-8-9-8l-62 0c-25 0-49-19-49-39l0-64 103 0c3 0 5-1 7-3 1-2 2-5 1-8l-24-85c-1-4-5-6-9-6l-78 0 0-213c0-5-4-9-8-9z m-77 17l68 0 0 213c0 5 4 9 9 9l80 0 20 68-100 0c-5 0-9 4-9 9l0 72c0 35 37 56 66 56l54 0 0 51-95 0c-51 0-93-41-93-88l0-91c0-5-4-9-9-9l-77 0 0-68 77 0c5 0 9-4 9-9z"/>
<glyph glyph-name="icomoon-32" unicode="&#42;" d="M503 0c-2 0-4 1-6 3l-157 164c-4 3-3 9 0 12 3 3 9 3 12 0l158-165c3-3 3-8-1-12-1-1-3-2-6-2z m-329 336c-2 0-4 1-6 2l-165 159c-4 4-4 9-1 12 4 4 9 4 12 1l166-159c4-4 4-9 0-13-1-1-3-2-6-2z m329-336l-93 0c-5 0-9 4-9 9 0 4 4 8 9 8l85 0 0 85c0 5 4 9 8 9 5 0 9-4 9-9l0-93c0-5-4-9-9-9z m-494 401c-5 0-9 4-9 9l0 93c0 5 4 9 9 9l93 0c5 0 9-4 9-9 0-4-4-8-9-8l-85 0 0-85c0-5-4-9-8-9z"/>
<glyph glyph-name="icomoon-33" unicode="&#43;" d="M447 423l-290 0c-5 0-9 3-9 8 0 5 4 9 9 9l290 0c4 0 8-4 8-9 0-5-4-8-8-8z m0-137l-290 0c-5 0-9 4-9 9 0 4 4 8 9 8l290 0c4 0 8-4 8-8 0-5-4-9-8-9z m0-119l-290 0c-5 0-9 3-9 8 0 5 4 9 9 9l290 0c4 0 8-4 8-9 0-5-4-8-8-8z m0-137l-290 0c-5 0-9 4-9 9 0 4 4 8 9 8l290 0c4 0 8-4 8-8 0-5-4-9-8-9z m-350 333c-5 0-9 4-9 8l0 71-5-10c-3-4-8-5-12-3-4 3-5 8-3 12l21 37c2 3 6 5 10 4 4-1 6-5 6-9l0-102c0-4-3-8-8-8z m25-111l-53 0c-4 0-7 2-8 5-1 4 0 7 2 10 17 15 41 41 41 54 0 17-12 19-16 19-7 0-14-8-14-16 0-5-4-8-9-8-4 0-8 3-8 8 0 18 14 33 31 33 16 0 33-11 33-36 0-16-17-38-31-52l32 0c5 0 9-4 9-9 0-4-4-8-9-8z"/>
<glyph glyph-name="icomoon-34" unicode="&#44;" d="M94 273c-1 0-2 0-2 0-56 15-92 72-92 98l0 16c0 35 31 65 68 65 37 0 70-30 70-65 0-13 0-46-36-50l0-55c0-3-1-5-3-7-1-1-3-2-5-2z m-26 162c-27 0-51-22-51-48l0-16c0-17 26-61 68-78l0 52c0 4 4 8 9 8 23 0 27 12 27 34 0 25-25 48-53 48z m179-162c0 0-1 0-1 0-76 15-92 76-92 98l0 16c0 35 32 65 70 65 34 0 72-28 72-65 0-29-15-47-40-50l0-55c0-3-1-5-3-7-2-1-4-2-6-2z m-23 162c-28 0-53-23-53-48l0-16c0-18 12-63 68-79l0 53c0 4 4 8 8 8 8 0 32 0 32 34 0 27-30 48-55 48z m221-375c-37 0-69 30-69 65 0 17 15 43 34 49l0 56c0 3 1 5 3 7 2 1 4 2 7 2 75-15 92-76 92-98l0-16c0-35-31-65-67-65z m-18 160l0-53c0-4-4-8-9-8-11 0-25-21-25-34 0-26 24-48 52-48 27 0 50 22 50 48l0 16c0 17-13 63-68 79z m-138-160c-38 0-71 30-71 65 0 18 19 43 38 49l0 56c0 3 1 5 3 7 2 1 5 2 7 2 76-15 92-76 92-98l0-16c0-35-32-65-69-65z m-16 160l0-53c0-4-4-8-8-8-12 0-29-21-29-34 0-28 28-48 53-48 28 0 52 22 52 48l0 16c0 17-12 63-68 79z"/>
<glyph glyph-name="icomoon-35" unicode="&#45;" d="M148 375c-2 0-4 0-6 2-3 3-3 9 0 12l108 108c3 3 9 3 12 0 3-4 3-9 0-12l-108-108c-1-2-3-2-6-2z m216 0c-3 0-5 0-6 2l-108 108c-3 3-3 8 0 12 3 3 9 3 12 0l108-108c3-3 3-9 0-12-2-2-4-2-6-2z m-108-362c-2 0-4 1-6 2l-108 108c-3 3-3 9 0 12 4 3 9 3 12 0l108-108c3-3 3-8 0-12-2-1-4-2-6-2z m0 0c-2 0-4 1-6 2-3 4-3 9 0 12l108 108c3 3 8 3 12 0 3-3 3-9 0-12l-108-108c-2-1-4-2-6-2z m56 237l-120 0c-5 0-8 3-8 8 0 5 3 9 8 9l120 0c4 0 8-4 8-9 0-5-4-8-8-8z"/>
<glyph glyph-name="icomoon-36" unicode="&#46;" d="M444 247l-376 0c-4 0-8 4-8 9 0 5 4 9 8 9l376 0c4 0 8-4 8-9 0-5-4-9-8-9z m-35-53c-2 0-4 1-5 2-4 3-5 8-2 12l39 48-39 48c-3 4-2 9 2 12 3 3 9 2 12-1l42-54c3-3 3-7 0-10l-42-54c-2-2-5-3-7-3z m-299 0c-2 0-5 1-6 3l-43 54c-3 3-3 7 0 10l43 54c3 3 8 4 12 1 3-3 4-8 1-12l-38-48 38-48c3-4 2-9-1-12-2-1-4-2-6-2z m393-6c-4 0-8 4-8 8l0 120c0 4 4 8 8 8 5 0 9-4 9-8l0-120c0-4-4-8-9-8z m-494 0c-5 0-9 4-9 8l0 120c0 4 4 8 9 8 4 0 8-4 8-8l0-120c0-4-4-8-8-8z"/>
<glyph glyph-name="icomoon-37" unicode="&#47;" d="M452 128l-392 0c-5 0-9 4-9 9l0 238c0 5 4 9 9 9l392 0c5 0 9-4 9-9l0-238c0-5-4-9-9-9z m-384 17l376 0 0 222-376 0z m435-68l-494 0c-5 0-9 4-9 8l0 342c0 4 4 8 9 8l494 0c5 0 9-4 9-8l0-342c0-4-4-8-9-8z m-486 17l478 0 0 324-478 0z m154 188l-103 0c-4 0-8 3-8 8 0 5 4 9 8 9l103 0c4 0 8-4 8-9 0-5-4-8-8-8z m8-145c-5 0-8 3-8 8l0 222c0 5 3 8 8 8 5 0 9-3 9-8l0-222c0-5-4-8-9-8z m137 0c-5 0-9 3-9 8l0 222c0 5 4 8 9 8 4 0 8-3 8-8l0-222c0-5-4-8-8-8z"/>
<glyph glyph-name="icomoon-38" unicode="&#58;" d="M188 14c-2 0-4 1-6 2l-166 166c-1 2-2 4-2 6 0 2 1 5 2 6l302 302c2 2 4 2 6 2l98-4c19 0 38-7 51-21 14-13 21-32 21-51l4-98c0-2 0-4-2-6l-302-302c-2-1-4-2-6-2z m-154 174l154-154 293 293-4 95c0 30-24 55-55 55l-95 4z m373 168c-14 0-27 5-36 15-20 20-20 52 0 72 19 19 53 19 72 0 20-20 20-52 0-72-10-10-22-15-36-15z m0 85c-9 0-18-4-24-10-14-13-14-35 0-48 13-13 35-13 48 0 13 13 13 35 0 48-6 6-15 10-24 10z"/>
<glyph glyph-name="icomoon-39" unicode="&#59;" d="M503 179l-494 0c-5 0-9 4-9 9l0 136c0 5 4 9 9 9l494 0c5 0 9-4 9-9l0-136c0-5-4-9-9-9z m-486 17l478 0 0 120-478 0z m-2-16c-1 0-2 1-3 1-5 2-7 6-5 11l49 134c2 4 7 6 11 5 4-2 7-7 5-11l-49-134c-2-3-5-6-8-6z m42 0c-1 0-2 1-3 1-4 2-6 6-5 11l50 134c1 4 6 6 11 5 4-2 6-7 5-11l-50-134c-1-3-4-6-8-6z m43 0c-1 0-2 1-3 1-4 2-7 6-5 11l49 134c2 4 7 6 11 5 5-2 7-7 5-11l-49-134c-1-3-4-6-8-6z m43 0c-1 0-2 1-3 1-5 2-7 6-5 11l49 134c2 4 7 6 11 5 4-2 7-7 5-11l-49-134c-2-3-5-6-8-6z m42 0c-1 0-2 1-3 1-4 2-6 6-5 11l50 134c1 4 6 6 11 5 4-2 6-7 5-11l-50-134c-1-3-4-6-8-6z m43 0c-1 0-2 1-3 1-4 2-7 6-5 11l49 134c2 4 7 6 11 5 5-2 7-7 5-11l-49-134c-1-3-4-6-8-6z"/>
<glyph glyph-name="icomoon-40" unicode="&#60;" d="M503 68l-494 0c-5 0-9 4-9 9l0 358c0 5 4 9 9 9l494 0c5 0 9-4 9-9l0-358c0-5-4-9-9-9z m-486 17l478 0 0 342-478 0z m478 256l-478 0c-5 0-8 4-8 9 0 5 3 8 8 8l478 0c5 0 8-3 8-8 0-5-3-9-8-9z m-406 60c0-6-4-11-10-11-6 0-11 5-11 11 0 6 5 11 11 11 6 0 10-5 10-11z m43 0c0-6-5-11-11-11-5 0-10 5-10 11 0 6 5 11 10 11 6 0 11-5 11-11z m43 0c0-6-5-11-11-11-6 0-11 5-11 11 0 6 5 11 11 11 6 0 11-5 11-11z m90-254c-2 0-4 1-6 2l-53 43c-3 3-4 8-1 12 3 3 8 4 12 1l48-38 47 38c4 3 9 2 12-1 3-4 2-9-1-12l-53-43c-2-1-4-2-5-2z m0 15c-5 0-9 4-9 9l0 119c0 5 4 9 9 9 4 0 8-4 8-9l0-119c0-5-4-9-8-9z"/>
<glyph glyph-name="icomoon-42" unicode="&#62;" d="M461 68l-410 0c-28 0-51 23-51 51l0 274c0 28 23 51 51 51l410 0c28 0 51-23 51-51l0-274c0-28-23-51-51-51z m-410 359c-19 0-34-16-34-34l0-274c0-18 15-34 34-34l410 0c19 0 34 16 34 34l0 274c0 18-15 34-34 34l-410 0z m209-231c-21 0-41 8-55 24l-183 200c-3 3-3 9 1 12 3 3 9 3 12-1l182-199c23-25 63-25 86 0l182 199c3 3 5-2 8-5 4-3 7-3 4-7l-182-199c-14-16-34-24-55-24z m-232-115c-2 0-5 1-6 3-4 4-3 9 0 12l167 153c4 3 9 3 12-1 4-3 3-9 0-12l-167-152c-2-2-4-3-6-3z m463 1c-2 0-4 1-5 3l-167 151c-3 3-3 9 0 12 3 4 8 4 12 1l166-152c4-3 4-8 1-12-2-2-4-3-7-3z"/>
<glyph glyph-name="icomoon-20" unicode="&#55;" d="M495 410l-478 0c-5 0-8 3-8 8 0 5 3 9 8 9l478 0c5 0 8-4 8-9 0-5-3-8-8-8z m-376-52l-17 0c-4 0-8 4-8 9 0 5 4 8 8 8l17 0c5 0 9-3 9-8 0-5-4-9-9-9z m120 0l-17 0c-5 0-9 4-9 9 0 5 4 8 9 8l17 0c5 0 8-3 8-8 0-5-3-9-8-9z m119 0l-17 0c-4 0-8 4-8 9 0 5 4 8 8 8l17 0c5 0 9-3 9-8 0-5-4-9-9-9z m120 0l-17 0c-5 0-9 4-9 9 0 5 4 8 9 8l17 0c5 0 8-3 8-8 0-5-3-9-8-9z m-359-221l-17 0c-4 0-8 3-8 8 0 5 4 9 8 9l17 0c5 0 9-4 9-9 0-5-4-8-9-8z m120 0l-17 0c-5 0-9 3-9 8 0 5 4 9 9 9l17 0c5 0 8-4 8-9 0-5-3-8-8-8z m119 0l-17 0c-4 0-8 3-8 8 0 5 4 9 8 9l17 0c5 0 9-4 9-9 0-5-4-8-9-8z m120 0l-17 0c-5 0-9 3-9 8 0 5 4 9 9 9l17 0c5 0 8-4 8-9 0-5-3-8-8-8z m17-52l-478 0c-5 0-8 4-8 9 0 5 3 8 8 8l478 0c5 0 8-3 8-8 0-5-3-9-8-9z m-418 86l-60 0c-5 0-8 4-8 8 0 5 3 9 8 9l51 0 0 136-51 0c-5 0-8 4-8 9 0 5 3 8 8 8l60 0c5 0 8-3 8-8l0-154c0-4-3-8-8-8z m418 0l-60 0c-4 0-8 4-8 8l0 154c0 5 4 8 8 8l60 0c5 0 8-3 8-8 0-5-3-9-8-9l-51 0 0-136 51 0c5 0 8-4 8-9 0-4-3-8-8-8z m-111 0l-239 0c-5 0-8 4-8 8l0 154c0 5 3 8 8 8l239 0c5 0 9-3 9-8l0-154c0-4-4-8-9-8z m-230 17l221 0 0 136-221 0z"/>
<glyph glyph-name="icomoon-41" unicode="&#61;" d="M148 375c-2 0-4 0-6 2-3 3-3 9 0 12l108 108c3 3 9 3 12 0 3-4 3-9 0-12l-108-108c-1-2-3-2-6-2z m216 0c-3 0-5 0-6 2l-108 108c-3 3-3 8 0 12 3 3 9 3 12 0l108-108c3-3 3-9 0-12-2-2-4-2-6-2z m-216-86c-2 0-4 1-6 3-3 3-3 8 0 12l108 107c3 4 9 4 12 0 3-3 3-8 0-12l-108-107c-1-2-3-3-6-3z m216 0c-3 0-5 1-6 3l-108 107c-3 4-3 9 0 12 3 4 9 4 12 0l108-107c3-4 3-9 0-12-2-2-4-3-6-3z m-108-276c-2 0-4 1-6 2l-108 108c-3 3-3 9 0 12 4 3 9 3 12 0l108-108c3-3 3-8 0-12-2-1-4-2-6-2z m0 0c-2 0-4 1-6 2-3 4-3 9 0 12l108 108c3 3 8 3 12 0 3-3 3-9 0-12l-108-108c-2-1-4-2-6-2z m0 85c-2 0-4 1-6 3l-108 107c-3 3-3 9 0 12 4 4 9 4 12 0l108-107c3-4 3-9 0-12-2-2-4-3-6-3z m0 0c-2 0-4 1-6 3-3 3-3 8 0 12l108 107c3 4 8 4 12 0 3-3 3-9 0-12l-108-107c-2-2-4-3-6-3z m56 152l-120 0c-5 0-8 3-8 8 0 5 3 9 8 9l120 0c4 0 8-4 8-9 0-5-4-8-8-8z"/>
<glyph glyph-name="icomoon-43" unicode="&#63;" d="M503 0l-494 0c-5 0-9 4-9 8l0 496c0 4 4 8 9 8l494 0c5 0 9-4 9-8l0-496c0-4-4-8-9-8z m-486 17l478 0 0 478-478 0z m478 231l-478 0c-5 0-8 3-8 8 0 5 3 8 8 8l478 0c5 0 8-3 8-8 0-5-3-8-8-8z m0 165l-478 0c-5 0-8 4-8 8 0 5 3 8 8 8l478 0c5 0 8-3 8-8 0-4-3-8-8-8z m-248-405c-4 0-8 4-8 9l0 478c0 5 4 9 8 9 5 0 9-4 9-9l0-478c0-5-4-9-9-9z m248 157l-478 0c-5 0-8 4-8 8 0 5 3 9 8 9l478 0c5 0 8-4 8-9 0-4-3-8-8-8z m-427 302c0-6-5-11-11-11-5 0-10 5-10 11 0 5 5 10 10 10 6 0 11-5 11-10z m43 0c0-6-5-11-11-11-6 0-11 5-11 11 0 5 5 10 11 10 6 0 11-5 11-10z m42 0c0-6-4-11-10-11-6 0-11 5-11 11 0 5 5 10 11 10 6 0 10-5 10-10z m150 0c0-6-5-11-11-11-6 0-11 5-11 11 0 5 5 10 11 10 6 0 11-5 11-10z m42 0c0-6-4-11-10-11-6 0-11 5-11 11 0 5 5 10 11 10 6 0 10-5 10-10z m43 0c0-6-5-11-11-11-5 0-10 5-10 11 0 5 5 10 10 10 6 0 11-5 11-10z m-85-248c0-6-5-10-11-10-6 0-11 4-11 10 0 6 5 10 11 10 6 0 11-4 11-10z m42 0c0-6-4-10-10-10-6 0-11 4-11 10 0 6 5 10 11 10 6 0 10-4 10-10z m43 0c0-6-5-10-11-10-5 0-10 4-10 10 0 6 5 10 10 10 6 0 11-4 11-10z m-320 0c0-6-5-10-11-10-5 0-10 4-10 10 0 6 5 10 10 10 6 0 11-4 11-10z m43 0c0-6-5-10-11-10-6 0-11 4-11 10 0 6 5 10 11 10 6 0 11-4 11-10z m42 0c0-6-4-10-10-10-6 0-11 4-11 10 0 6 5 10 11 10 6 0 10-4 10-10z"/>
<glyph glyph-name="icomoon-44" unicode="&#64;" d="M250 131c-2 0-4 0-6 2l-100 90c-3 3-3 8 0 12 3 3 8 4 12 0l94-84 94 84c4 4 9 3 12 0 4-4 3-9 0-12l-100-90c-2-2-4-2-6-2z m-3 12c-4 0-8 4-8 9l0 341c0 5 4 9 8 9 5 0 9-4 9-9l0-341c0-5-4-9-9-9z m256-128l-494 0c-5 0-9 4-9 9l0 324c0 5 4 9 9 9l162 0c4 0 8-4 8-9 0-5-4-8-8-8l-154 0 0-308 478 0 0 308-171 0c-4 0-8 3-8 8 0 5 4 9 8 9l179 0c5 0 9-4 9-9l0-324c0-5-4-9-9-9z"/>
<glyph glyph-name="icomoon-45" unicode="&#91;" d="M497 105c-1 0-3 0-4 1-4 2-6 7-4 11 4 8 7 18 7 28l0 216c0 35-27 60-63 60l-152 0c-4 0-8 4-8 8 0 13-27 58-55 58l-84 0c-13 0-25-4-35-11-4-3-9-2-12 2-2 4-2 9 2 12 13 9 29 14 45 14l84 0c34 0 64-42 70-66l145 0c45 0 79-33 79-77l0-216c0-9-1-22-8-36-1-2-4-4-7-4z m-115-97l-300 0c-37 0-82 35-82 75l0 282c0 39 34 73 73 73l83 0c35 0 67-31 71-66l144 0c46 0 75-29 75-73l0-216c0-37-24-75-64-75z m-309 413c-29 0-56-27-56-56l0-282c0-30 37-58 65-58l300 0c30 0 47 29 47 58l0 216c0 35-21 56-58 56l-152 0c-4 0-8 4-8 8 0 30-27 58-55 58l-83 0z"/>
<glyph glyph-name="icomoon-46" unicode="&#93;" d="M451 132l-64 0 0 13 64 0c25 0 47 31 47 56l0 109c0 25-22 57-47 57l-64 0 0 13 64 0c33 0 61-38 61-70l0-109c0-32-28-69-61-69z m-340 0l-49 0c-33 0-62 38-62 69l0 109c0 32 29 70 62 70l49 0 0-13-49 0c-25 0-48-32-48-57l0-109c0-25 23-56 48-56l49 0 0-13z m231-28l-186 0c-33 0-59 26-59 59l0 186c0 33 26 59 59 59l186 0c32 0 59-26 59-59l0-186c0-33-27-59-59-59z m-186 290c-25 0-45-20-45-45l0-186c0-25 20-45 45-45l186 0c25 0 45 20 45 45l0 186c0 25-20 45-45 45z m156-221l-120 0c-31 0-54 25-54 59l0 86c0 30 19 62 54 62l120 0c33 0 61-29 61-62l0-86c0-32-28-59-61-59z m-120 194c-26 0-40-25-40-49l0-86c0-27 16-45 40-45l120 0c26 0 47 21 47 45l0 86c0 25-22 49-47 49z m138-166l-147 0c-3 0-5 1-6 3-1 2-1 5 0 7l35 63c1 4 5 5 9 3l33-16 40 48c2 2 4 3 7 2 2 0 4-2 5-4l31-97c1-2 0-5-1-6-1-2-3-3-6-3z m-136 14l127 0-25 76-35-43c-2-2-6-3-9-2l-32 16-26-47z"/>
<glyph glyph-name="icomoon-47" unicode="&#94;" d="M503 0l-494 0c-5 0-9 4-9 8l0 496c0 4 4 8 9 8l494 0c5 0 9-4 9-8l0-496c0-4-4-8-9-8z m-486 17l478 0 0 478-478 0z m478 379l-478 0c-5 0-8 4-8 9 0 4 3 8 8 8l478 0c5 0 8-4 8-8 0-5-3-9-8-9z m0-165l-478 0c-5 0-8 4-8 8 0 5 3 9 8 9l478 0c5 0 8-4 8-9 0-4-3-8-8-8z m0 99l-478 0c-5 0-8 4-8 9 0 4 3 8 8 8l478 0c5 0 8-4 8-8 0-5-3-9-8-9z m-51 99l-34 0c-5 0-9 4-9 9 0 4 4 8 9 8l34 0c4 0 8-4 8-8 0-5-4-9-8-9z m0-165l-34 0c-5 0-9 4-9 9 0 4 4 8 9 8l34 0c4 0 8-4 8-8 0-5-4-9-8-9z m-17-99l-342 0c-4 0-8 4-8 8 0 5 4 9 8 9l342 0c4 0 8-4 8-9 0-4-4-8-8-8z m-103-99l-239 0c-4 0-8 4-8 8 0 5 4 9 8 9l239 0c5 0 9-4 9-9 0-4-4-8-9-8z m0 66l-239 0c-4 0-8 4-8 8 0 5 4 9 8 9l239 0c5 0 9-4 9-9 0-4-4-8-9-8z"/>
<glyph glyph-name="icomoon-48" unicode="&#95;" d="M486 247l-239 0c-4 0-8 4-8 9l0 239c0 5 4 8 8 8l239 0c5 0 9-3 9-8l0-239c0-5-4-9-9-9z m-230 18l222 0 0 221-222 0z m-9-256l-221 0c-5 0-9 3-9 8l0 239c0 5 4 9 9 9l221 0c5 0 9-4 9-9l0-239c0-5-4-8-9-8z m-213 17l205 0 0 221-205 0z"/>
<glyph glyph-name="icomoon-49" unicode="&#96;" d="M469 0l-246 0c-36 0-86 33-86 87l0 271c0 1 0 2 0 2 0 2 0 5 0 7 0 39 24 43 51 43l205 0c4 0 8-4 8-9 0-5-4-8-8-8l-205 0c-29 0-34-5-34-26 0-22 5-26 34-26l281 0c5 0 9-3 9-8l0-324c0-5-4-9-9-9z m-315 330l0-243c0-46 45-70 69-70l238 0 0 307-273 0c-13 0-25 1-34 6z m290 28l-239 0c-5 0-9 4-9 9 0 5 4 8 9 8l239 0c4 0 8-3 8-8 0-5-4-9-8-9z m-297-294c-1 0-2 0-3 0-24 7-59 35-59 65l0 278c0 33 24 54 60 54l213 0c5 0 9-4 9-9 0-4-4-8-9-8l-213 0c-13 0-43-4-43-37l0-278c0-19 26-43 47-48 4-1 7-6 6-11-1-3-5-6-8-6z m-55 49c-1 0-2 0-2 0-27 5-56 28-56 59l0 278c0 37 36 62 68 62l239 0c5 0 9-4 9-9 0-4-4-8-9-8l-239 0c-23 0-51-20-51-45l0-278c0-21 22-38 42-42 5-1 8-5 7-10-1-4-4-7-8-7z"/>
<glyph glyph-name="icomoon-50" unicode="&#123;" d="M434 111l-426 0c-5 0-9 4-9 8l0 342c0 5 4 8 9 8l426 0c5 0 9-3 9-8l0-342c0-4-4-8-9-8z m-418 17l410 0 0 324-410 0z m410 239l-410 0c-5 0-8 4-8 8 0 5 3 9 8 9l410 0c4 0 8-4 8-9 0-4-4-8-8-8z m34 17l-9 0c-5 0-8 4-8 9 0 4 3 8 8 8l9 0c4 0 8-4 8-8 0-5-4-9-8-9z m44-9c-4 0-8 4-8 9-5 0-9 4-9 9 0 4 4 8 9 8l8 0c5 0 9-4 9-8l0-9c0-5-4-9-9-9z m0-273c-4 0-8 4-8 9l0 17c0 5 4 9 8 9 5 0 9-4 9-9l0-17c0-5-4-9-9-9z m0 69c-4 0-8 4-8 8l0 17c0 5 4 9 8 9 5 0 9-4 9-9l0-17c0-4-4-8-9-8z m0 68c-4 0-8 4-8 8l0 18c0 4 4 8 8 8 5 0 9-4 9-8l0-18c0-4-4-8-9-8z m0 68c-4 0-8 4-8 9l0 17c0 5 4 8 8 8 5 0 9-3 9-8l0-17c0-5-4-9-9-9z m0-264l-8 0c-5 0-9 4-9 8 0 5 4 9 9 9 0 4 4 8 8 8 5 0 9-4 9-8l0-9c0-4-4-8-9-8z m-62 0l-17 0c-5 0-9 4-9 8 0 5 4 9 9 9l17 0c5 0 9-4 9-9 0-4-4-8-9-8z m-71 0l-18 0c-4 0-8 4-8 8 0 5 4 9 8 9l18 0c5 0 9-4 9-9 0-4-4-8-9-8z m-71 0l-18 0c-4 0-8 4-8 8 0 5 4 9 8 9l18 0c5 0 9-4 9-9 0-4-4-8-9-8z m-71 0l-18 0c-5 0-9 4-9 8 0 5 4 9 9 9l18 0c4 0 8-4 8-9 0-4-4-8-8-8z m-71 0l-18 0c-5 0-9 4-9 8 0 5 4 9 9 9l18 0c4 0 8-4 8-9 0-4-4-8-8-8z m-72 0l-8 0c-5 0-9 4-9 8l0 9c0 4 4 8 9 8 4 0 8-4 8-8 5 0 9-4 9-9 0-4-4-8-9-8z m-8 44c-5 0-9 4-9 9l0 9c0 4 4 8 9 8 4 0 8-4 8-8l0-9c0-5-4-9-8-9z m-11 327c0-6-5-11-11-11-5 0-10 5-10 11 0 6 5 11 10 11 6 0 11-5 11-11z m43 0c0-6-5-11-11-11-6 0-11 5-11 11 0 6 5 11 11 11 6 0 11-5 11-11z m42 0c0-6-4-11-10-11-6 0-11 5-11 11 0 6 5 11 11 11 6 0 10-5 10-11z"/>
<glyph glyph-name="icomoon-51" unicode="&#124;" d="M501 139c0 0 0 0 0 0l-409 0c-2 0-4 1-6 2l-65 69c-14 13-21 30-21 48 0 17 7 34 21 47l65 66c2 2 4 2 6 2l409 0c3 0 6-1 8-4 1-3 1-7-1-9l-80-104 79-102c1-2 3-4 3-7 0-5-4-8-9-8z m-405 16l388 0-73 96c-3 3-3 7 0 10l73 96-388 0-63-64c-11-10-16-22-16-35 0-13 5-26 16-36z m17 53c-28 0-50 22-50 50 0 28 22 50 50 50 28 0 51-22 51-50 0-28-23-50-51-50z m0 84c-18 0-33-15-33-34 0-18 15-33 33-33 19 0 34 15 34 33 0 19-15 34-34 34z m210-19l-101 0c-4 0-8 4-8 8 0 5 4 9 8 9l101 0c5 0 8-4 8-9 0-4-3-8-8-8z m0-51l-101 0c-4 0-8 4-8 9 0 4 4 8 8 8l101 0c5 0 8-4 8-8 0-5-3-9-8-9z"/>
<glyph glyph-name="icomoon-52" unicode="&#125;" d="M269 169c-5 0-8 4-8 8l0 120c0 4 3 8 8 8 5 0 9-4 9-8l0-120c0-4-4-8-9-8z m60 60l-120 0c-4 0-8 3-8 8 0 5 4 9 8 9l120 0c5 0 8-4 8-9 0-5-3-8-8-8z m87-154l-299 0c-63 0-115 52-115 117 0 64 51 117 114 117 23 76 93 128 172 128 99 0 179-80 179-179 0-3 0-5 0-8 27-17 43-47 43-79 0-52-43-96-94-96z m-297 217c-56 0-100-45-100-100 0-54 45-100 98-100l299 0c42 0 77 36 77 79 0 28-15 54-39 67-3 2-5 5-4 8 0 4 0 8 0 12 0 89-73 162-162 162-74 0-139-50-157-122-1-4-4-7-9-6-1 0-2 0-3 0 0 0 0 0 0 0z"/>
<glyph glyph-name="icomoon-53" unicode="&#126;" d="M409 130c-2 0-4 1-5 2-4 3-5 8-2 12l82 112-82 112c-3 4-2 9 2 12 4 3 9 2 12-2l85-117c2-3 2-7 0-10l-85-117c-2-3-4-4-7-4z m-299 0c-2 0-5 1-6 3l-94 118c-2 3-2 7 0 10l94 118c3 3 8 4 12 1 3-3 4-8 1-12l-89-112 89-112c3-4 2-9-1-12-2-1-4-2-6-2z m385 117l-478 0c-5 0-8 4-8 9 0 5 3 9 8 9l478 0c5 0 8-4 8-9 0-5-3-9-8-9z"/>
<glyph glyph-name="icomoon-54" unicode="&#92;" d="M25 16c-3 0-5 1-6 3-2 2-3 5-3 8l36 156c0 1 1 3 2 4l288 288c13 13 31 21 48 21 13 0 24-5 33-13l60-60c10-10 14-24 12-40-1-15-9-30-20-41l-288-288c-1-1-3-2-4-2l-156-36c-1 0-2 0-2 0z m43 161l-32-141 141 32 286 286c8 9 14 20 16 31 1 10-2 19-8 26l-60 60c-7 6-15 8-21 8-12 0-26-6-36-17l-286-285z m351 131l-112 112 12 12 112-111z m-43-45l-112 112 12 12 112-112z m-186-202c-64 0-129 65-129 129l17 0c0-54 58-112 112-112z"/>
<glyph glyph-name="icomoon-55" unicode="&#57344;" d="M256 495c132 0 239-107 239-239 0-132-107-239-239-239-132 0-239 107-239 239 0 132 107 239 239 239z m0 17c-141 0-256-115-256-256 0-141 115-256 256-256 141 0 256 115 256 256 0 141-115 256-256 256z m13-457c-5 0-9 4-9 9l0 384c0 5 4 9 9 9 91 0 201-90 201-201 0-111-110-201-201-201z m9 384l0-366c80 5 174 88 174 183 0 95-94 178-174 183z m-1-12l22 0 0-22-22 0z m0-43l22 0 0-21-22 0z m0-43l22 0 0-21-22 0 0 21z m0-42l22 0 0-22-22 0z m0-43l22 0 0-21-22 0z m0-43l22 0 0-21-22 0z m0-42l22 0 0-22-22 0z m0-43l22 0 0-21-22 0z m0-43l22 0 0-21-22 0z m22 363l21 0 0-21-21 0z m0-43l21 0 0-21-21 0z m0-42l21 0 0-22-21 0z m0-43l21 0 0-21-21 0z m0-43l21 0 0-21-21 0 0 21z m0-42l21 0 0-22-21 0z m0-43l21 0 0-21-21 0z m0-43l21 0 0-21-21 0z m0-42l21 0 0-22-21 0z m21 320l21 0 0-22-21 0z m0-43l21 0 0-21-21 0z m0-43l21 0 0-21-21 0 0 21z m0-42l21 0 0-22-21 0z m0-43l21 0 0-21-21 0z m0-43l21 0 0-21-21 0z m0-42l21 0 0-22-21 0z m0-43l21 0 0-21-21 0z m21 277l22 0 0-21-22 0z m0-42l22 0 0-22-22 0z m0-43l22 0 0-21-22 0z m0-43l22 0 0-21-22 0 0 21z m0-42l22 0 0-22-22 0z m0-43l22 0 0-21-22 0z m0-43l22 0 0-21-22 0z m0-42l22 0 0-22-22 0z m22 277l21 0 0-21-21 0z m0-43l21 0 0-21-21 0 0 21z m0-42l21 0 0-22-21 0z m0-43l21 0 0-21-21 0z m0-43l21 0 0-21-21 0z m0-42l21 0 0-22-21 0z m0-43l21 0 0-21-21 0z m21 235l21 0 0-22-21 0z m0-43l21 0 0-21-21 0z m0-43l21 0 0-21-21 0 0 21z m0-42l21 0 0-22-21 0z m0-43l21 0 0-21-21 0z m0-43l21 0 0-21-21 0z m21 192l22 0 0-21-22 0 0 21z m0-42l22 0 0-22-22 0z m0-43l22 0 0-21-22 0z m0-43l22 0 0-21-22 0z m0-42l22 0 0-22-22 0z m22 149l21 0 0-21-21 0z m0-43l21 0 0-21-21 0 0 21z m0-42l21 0 0-22-21 0z m0-43l21 0 0-21-21 0z"/>
<glyph glyph-name="icomoon-56" unicode="&#57345;" d="M258 23c0 0 0 0 0 0-3 1-5 2-7 4l-66 103-176 0c-5 0-9 4-9 9l0 341c0 5 4 9 9 9l494 0c5 0 9-4 9-9l0-341c0-5-4-9-9-9l-164 0-74-103c-1-2-4-4-7-4z m-241 124l173 0c3 0 6-1 7-4l62-96 69 97c1 2 4 3 6 3l161 0 0 324-478 0 0-324z"/>
<glyph glyph-name="icomoon-58" unicode="&#57347;" d="M453 0l-386 0c-34 0-67 32-67 65l0 131c0 5 4 9 9 9l494 0c5 0 9-4 9-9l0-131c0-35-27-65-59-65z m-436 188l0-123c0-24 25-48 50-48l386 0c25 0 42 25 42 48l0 123z m333-120l-188 0c-5 0-8 4-8 9l0 68c0 5 3 9 8 9l188 0c5 0 8-4 8-9l0-68c0-5-3-9-8-9z m-179 17l170 0 0 52-170 0z m332 103l-494 0c-3 0-6 1-7 3-2 2-2 5-2 7l70 307c1 4 5 7 9 7l362 0c4 0 8-3 9-7l62-307c0-3 0-5-2-7-2-2-4-3-7-3z m-484 17l474 0-59 290-348 0z m425 222l-376 0c-4 0-8 3-8 8 0 5 4 9 8 9l376 0c4 0 8-4 8-9 0-5-4-8-8-8z m17-69l-410 0c-5 0-8 4-8 9 0 5 3 8 8 8l410 0c4 0 8-3 8-8 0-5-4-9-8-9z m17-85l-444 0c-5 0-8 4-8 9 0 4 3 8 8 8l444 0c5 0 8-4 8-8 0-5-3-9-8-9z"/>
<glyph glyph-name="icomoon-60" unicode="&#57349;" d="M427 273l-239 0c-5 0-9 4-9 9 0 4 4 8 9 8l239 0c4 0 8-4 8-8 0-5-4-9-8-9z m-39-65c-2 0-3 0-5 1-4 3-5 8-2 12l40 61-40 69c-3 4-1 10 3 12 4 2 9 1 11-3l43-74c2-3 2-6 0-9l-43-66c-1-2-4-3-7-3z m-64 14l-239 0c-4 0-8 4-8 8 0 5 4 9 8 9l239 0c5 0 9-4 9-9 0-4-4-8-9-8z m-196-74c-3 0-6 1-7 4l-43 74c-2 3-2 6 0 9l43 74c2 4 7 5 11 3 4-3 6-8 3-12l-40-70 40-69c3-4 1-10-3-12-1-1-3-1-4-1z m375-63l-494 0c-5 0-9 4-9 9l0 324c0 5 4 9 9 9l494 0c5 0 9-4 9-9l0-324c0-5-4-9-9-9z m-486 17l478 0 0 308-478 0z"/>
<glyph glyph-name="icomoon-57" unicode="&#57346;" d="M503 68l-494 0c-5 0-9 4-9 9l0 358c0 5 4 9 9 9l494 0c5 0 9-4 9-9l0-358c0-5-4-9-9-9z m-486 17l478 0 0 342-478 0z m478 256l-478 0c-5 0-8 4-8 9 0 5 3 8 8 8l478 0c5 0 8-3 8-8 0-5-3-9-8-9z m-406 60c0-6-4-11-10-11-6 0-11 5-11 11 0 6 5 11 11 11 6 0 10-5 10-11z m43 0c0-6-5-11-11-11-5 0-10 5-10 11 0 6 5 11 10 11 6 0 11-5 11-11z m43 0c0-6-5-11-11-11-6 0-11 5-11 11 0 6 5 11 11 11 6 0 11-5 11-11z m226-290c-5 0-8 4-8 8l0 120c0 5 3 8 8 8 5 0 9-3 9-8l0-120c0-4-4-8-9-8z m60 60l-120 0c-4 0-8 4-8 8 0 5 4 9 8 9l120 0c4 0 8-4 8-9 0-4-4-8-8-8z"/>
</font>
</defs>
</svg>
